<svg version="1.1" xmlns="http://www.w3.org/2000/svg" viewBox="0 0 694.7779951809432 219.07352212413207" width="694.7779951809432" height="219.07352212413207">
  <!-- svg-source:excalidraw -->
  
  <defs>
    <style class="style-fonts">
      @font-face {
        font-family: "Virgil";
        src: url("https://excalidraw.com/Virgil.woff2");
      }
      @font-face {
        font-family: "Cascadia";
        src: url("https://excalidraw.com/Cascadia.woff2");
      }
    </style>
  </defs>
  <g stroke-linecap="round" transform="translate(110.82548466058302 135.7361724479365) rotate(0 43.35680270517355 34.799539013362846)"><path d="M0.11 0.04 L88.65 -1.13 L86.92 68.74 L-1.91 69.25" stroke="none" stroke-width="0" fill="#ffff"></path><path d="M-0.3 0.82 C25.91 -0.48, 50.19 -0.48, 86.81 1.58 M0.62 -0.17 C23.85 -0.71, 45.63 -0.5, 87.48 -0.58 M87.22 -1.75 C88.58 20.63, 88.8 42.29, 86.28 68.56 M86.31 0.77 C86.96 22.21, 86.4 46.16, 87.43 69.38 M88.02 71.46 C63.02 71.34, 37.71 68.49, 1.88 70.04 M85.87 68.63 C68.42 70.03, 50.44 70.58, -0.36 69.86 M1.66 71.41 C-1.33 51.23, 1.49 29.58, 0.55 -0.61 M0.2 68.89 C-0.34 48.16, 1.43 25.2, -0.52 0.41" stroke="#000000" stroke-width="2" fill="none"></path></g><g transform="translate(120.68228736575634 157.53571146129934) rotate(0 33.5 13)"><text x="33.5" y="19" font-family="Virgil, Segoe UI Emoji" font-size="20px" fill="#000000" text-anchor="middle" style="white-space: pre;" direction="ltr">Export</text></g><g stroke-linecap="round" transform="translate(494.6105453583616 139.47444409740638) rotate(0 43.35680270517332 34.799539013362846)"><path d="M-1.56 1.76 L86.97 -0.98 L85.74 68.43 L-0.91 69.6" stroke="none" stroke-width="0" fill="#ffff"></path><path d="M-0.66 -0.75 C22.62 0.56, 44.05 0.71, 85.65 -1.32 M0.14 0.87 C22.99 0.75, 45.65 1.13, 86.11 0.74 M87.22 1.2 C88.06 15.25, 88.1 31.76, 85.81 68.14 M86.65 -0.37 C87.11 27.41, 88.14 54.4, 87.63 70.56 M84.9 71.15 C66.57 68.1, 41.55 69.46, -0.4 69.57 M86.59 69.82 C56.74 70.65, 29.57 69.23, 0.84 70.42 M0.29 67.94 C1.35 48.84, -1.61 25.43, 0.87 1.72 M0.06 69.62 C1.33 52.66, 0.46 36.42, -0.96 -0.17" stroke="#000000" stroke-width="2" fill="none"></path></g><g transform="translate(505.4673480635349 161.27398311076922) rotate(0 32.5 13)"><text x="32.5" y="19" font-family="Virgil, Segoe UI Emoji" font-size="20px" fill="#000000" text-anchor="middle" style="white-space: pre;" direction="ltr">Import</text></g><g stroke-linecap="round" transform="translate(498.9453430190599 11.94261059428436) rotate(0 43.35680270517332 34.799539013362846)"><path d="M0.26 -0.98 L85.74 -1.17 L85.81 69.6 L-1.97 68.06" stroke="none" stroke-width="0" fill="#ffff"></path><path d="M0.42 1.24 C32.54 1.72, 64.7 -1, 86.08 1.53 M-0.27 0.25 C20.13 -0.13, 41.41 -0.02, 86.02 -0.22 M88.21 -0.81 C88.43 16.91, 85.99 33.06, 88.4 71.03 M86.61 0.65 C87.6 20.24, 87.59 39.67, 86.21 70.54 M88.18 67.91 C56.86 69.95, 30.5 70.25, 0.69 68.88 M85.76 70.43 C59.36 69.2, 31.04 70.61, 0.04 69.88 M1.54 70.01 C-1.52 49.01, 0.77 33.78, -1.29 -1.03 M0.97 69.03 C0.07 45.42, -1 21.93, -0.78 0.88" stroke="#5f3dc4" stroke-width="2" fill="none"></path></g><g transform="translate(509.80214572423324 33.74214960764721) rotate(0 32.5 13)"><text x="32.5" y="19" font-family="Virgil, Segoe UI Emoji" font-size="20px" fill="#5f3dc4" text-anchor="middle" style="white-space: pre;" direction="ltr">Import</text></g><g stroke-linecap="round"><g transform="translate(196.98840399675487 81.78093990946172) rotate(0 -1.1448078861337763 26.930633009507346)"><path d="M-0.34 1.4 C-1.16 12.59, -0.94 29.36, -1.95 53.23 M-0.88 0.63 C-1.05 21.25, -1.45 40.8, -1.31 53.21" stroke="#364fc7" stroke-width="2" fill="none"></path></g><g transform="translate(196.98840399675487 81.78093990946172) rotate(0 -1.1448078861337763 26.930633009507346)"><path d="M-1.32 0.22 L4.68 15.18 L-9.05 13.26 L-1.3 2.21" stroke="none" stroke-width="0" fill="#364fc7" fill-rule="evenodd"></path><path d="M-0.6 2.44 C0.45 3.99, 2.33 9.75, 4.72 15.38 M-1 1.87 C1.46 7.27, 3.69 11.89, 5.2 15.37 M6.56 14.95 C0.45 14.06, -2.47 15.76, -7.37 14.71 M6.17 15.73 C2.83 15.77, -1.41 15.65, -6.95 14.22 M-8.55 14.55 C-4.94 9.77, -1.57 4.19, 0.04 1.22 M-6.41 14.35 C-4.16 11.04, -2.59 6.32, -0.57 1.5 M-0.34 1.4 C-0.34 1.4, -0.34 1.4, -0.34 1.4 M-0.34 1.4 C-0.34 1.4, -0.34 1.4, -0.34 1.4" stroke="#364fc7" stroke-width="2" fill="none"></path></g></g><mask></mask><g stroke-linecap="round"><g transform="translate(579.1822310034847 137.89224515776914) rotate(0 0.5924621101055436 -26.14994306234189)"><path d="M1.4 -1.06 C-1.76 -17.42, 0.98 -34.73, -0.08 -50.55 M0.63 -0.6 C0.51 -14.97, -0.55 -29.08, -0.1 -51.7" stroke="#e67700" stroke-width="2" fill="none"></path></g><g transform="translate(579.1822310034847 137.89224515776914) rotate(0 0.5924621101055436 -26.14994306234189)"><path d="M0.22 -1.97 L-5.44 -16.38 L5.69 -15.83 L2.21 -1.74" stroke="none" stroke-width="0" fill="#e67700" fill-rule="evenodd"></path><path d="M2.44 -1.85 C-1.87 -5.83, -1.93 -10.51, -5.23 -13.1 M1.87 -1.51 C0.05 -5.28, -2.53 -8.8, -5.25 -13.96 M-5.66 -14.98 C-1.61 -13.61, 4.97 -15.14, 7.15 -15.34 M-4.88 -13.83 C-1.16 -14.99, 2.49 -14.66, 6.65 -14.39 M6.99 -15.18 C4.92 -9.26, 2.22 -4.23, 1.22 -0.73 M6.79 -14.25 C6.77 -11.96, 5.16 -9.39, 1.5 -1.68 M1.4 -1.06 C1.4 -1.06, 1.4 -1.06, 1.4 -1.06 M1.4 -1.06 C1.4 -1.06, 1.4 -1.06, 1.4 -1.06" stroke="#e67700" stroke-width="2" fill="none"></path></g></g><mask></mask><g transform="translate(216.4638915866301 98.55801285271764) rotate(0 19 13)"><text x="19" y="19" font-family="Virgil, Segoe UI Emoji" font-size="20px" fill="#364fc7" text-anchor="middle" style="white-space: pre;" direction="ltr">Lift</text></g><g transform="translate(607.5948904805207 95.77783929035832) rotate(0 28 13)"><text x="28" y="19" font-family="Virgil, Segoe UI Emoji" font-size="20px" fill="#e67700" text-anchor="middle" style="white-space: pre;" direction="ltr">Lower</text></g><g stroke-linecap="round"><g transform="translate(112.67179956438235 134.7361724479365) rotate(0 0.0455789408426881 -27.048192823571753)"><path d="M-1.84 -0.35 C-0.46 -16.29, 1.84 -35.57, -0.05 -53.95 M0.06 -0.15 C-0.48 -17.19, -0.49 -33.25, 1.93 -53.27" stroke="#e67700" stroke-width="2" fill="none"></path></g><g transform="translate(112.67179956438235 134.7361724479365) rotate(0 0.0455789408426881 -27.048192823571753)"><path d="M-2.22 -2.05 L-6.44 -15.67 L4.15 -12.09 L-3.53 0.93" stroke="none" stroke-width="0" fill="#e67700" fill-rule="evenodd"></path><path d="M-3.22 -0.62 C-4.39 -3.9, -4.68 -9.73, -8.07 -14.31 M-1.79 -0.46 C-4.06 -4.88, -6.01 -8.61, -6.58 -13.8 M-8.47 -15.53 C-3.69 -13.35, 1.01 -15, 5.9 -13.12 M-7.76 -14.7 C-3.43 -13.57, -0.01 -14.27, 5.8 -13.06 M5.16 -14 C2.66 -9.48, 0.74 -5.15, -1.17 0.27 M5.64 -13.04 C4.06 -9.93, 1.36 -6.72, -1.8 -0.84 M-1.84 -0.35 C-1.84 -0.35, -1.84 -0.35, -1.84 -0.35 M-1.84 -0.35 C-1.84 -0.35, -1.84 -0.35, -1.84 -0.35" stroke="#e67700" stroke-width="2" fill="none"></path></g></g><mask></mask><g transform="translate(41.169635938030524 89.72779721464258) rotate(0 28 13)"><text x="28" y="19" font-family="Virgil, Segoe UI Emoji" font-size="20px" fill="#e67700" text-anchor="middle" style="white-space: pre;" direction="ltr">Lower</text></g><g stroke-linecap="round"><g transform="translate(501.09969076872653 85.00168158628549) rotate(0 -0.8926741286888955 25.885522108758323)"><path d="M-1.99 -1.88 C-2.39 15.99, -2.24 31.36, -0.93 53.65 M0.4 -0.7 C-0.69 14.04, -2.09 30.32, -1.06 53.35" stroke="#364fc7" stroke-width="2" fill="none"></path></g><g transform="translate(501.09969076872653 85.00168158628549) rotate(0 -0.8926741286888955 25.885522108758323)"><path d="M-1.94 -2.4 L4.44 12.98 L-9.82 11.72 L-1.01 -3.27" stroke="none" stroke-width="0" fill="#364fc7" fill-rule="evenodd"></path><path d="M-3.48 -3.3 C-1.18 1.99, 1.34 5.39, 5.12 12.04 M-1.69 -2.41 C-0.12 1.29, 1.01 6.16, 5.02 11.81 M3.36 11.47 C-0.1 11.9, -3.88 10.53, -9.23 11.89 M4.35 11.23 C0.59 12.24, -2.05 11.35, -8.64 11.85 M-9.31 10.6 C-6.07 8.99, -6.34 5.49, -1.14 -2.7 M-8.59 11.92 C-6.15 7.23, -3.7 3.19, -2.56 -2.1 M-1.99 -1.88 C-1.99 -1.88, -1.99 -1.88, -1.99 -1.88 M-1.99 -1.88 C-1.99 -1.88, -1.99 -1.88, -1.99 -1.88" stroke="#364fc7" stroke-width="2" fill="none"></path></g></g><mask></mask><g transform="translate(441.9895223136389 100.78957706774236) rotate(0 19 13)"><text x="19" y="19" font-family="Virgil, Segoe UI Emoji" font-size="20px" fill="#364fc7" text-anchor="middle" style="white-space: pre;" direction="ltr">Lift</text></g><g stroke-linecap="round"><g transform="translate(10.464042716473386 42.448627279399716) rotate(0 50.22534070958761 0.538185317324178)"><path d="M-0.46 -0.61 C16.16 -0.7, 84.11 -0.26, 100.91 -0.3 M1.49 1.69 C17.91 1.75, 83.92 1.35, 100.27 1.08" stroke="#5f3dc4" stroke-width="2" fill="none"></path></g><g transform="translate(10.464042716473386 42.448627279399716) rotate(0 50.22534070958761 0.538185317324178)"><path d="M98.79 2.2 L87.18 7.26 L85.11 -5.12 L100.86 2.93" stroke="none" stroke-width="0" fill="#5f3dc4" fill-rule="evenodd"></path><path d="M99.51 1.79 C94.53 3.6, 88.46 7.07, 87.94 6.75 M99.95 0.58 C97.19 2.17, 93.84 4.91, 86.06 8.04 M87.8 8.46 C86.92 4.68, 86.27 1.24, 87.2 -4.58 M86.36 8.07 C86.85 2.85, 86.72 -1.13, 86.17 -4.99 M87.79 -3.99 C91.91 -1.12, 98.24 -1.13, 101.51 0.89 M86.73 -5.51 C90.81 -4.11, 94.43 -1.95, 99.79 1.45 M100.27 1.08 C100.27 1.08, 100.27 1.08, 100.27 1.08 M100.27 1.08 C100.27 1.08, 100.27 1.08, 100.27 1.08" stroke="#5f3dc4" stroke-width="2" fill="none"></path></g></g><mask></mask><g stroke-linecap="round"><g transform="translate(199.70570048558898 44.372827550545935) rotate(0 50.50812850942293 0.23970358994779417)"><path d="M-0.41 0 C16.58 -0.01, 84.7 0.07, 101.42 -0.01 M1.58 -1.04 C18.54 -0.86, 84.82 1.25, 101.04 1.52" stroke="#5f3dc4" stroke-width="2" fill="none"></path></g><g transform="translate(199.70570048558898 44.372827550545935) rotate(0 50.50812850942293 0.23970358994779417)"><path d="M100.53 0.85 L88.02 9.18 L88.32 -6.99 L102.12 2.69" stroke="none" stroke-width="0" fill="#5f3dc4" fill-rule="evenodd"></path><path d="M101.05 2.87 C97.46 2.5, 93.27 4.49, 88.71 8.02 M100.58 1.93 C97.66 2.43, 94.74 3.28, 87.61 8.17 M87.72 7.74 C87.41 4.18, 88.12 -1.65, 86.5 -5.19 M86.89 6.9 C87.95 3.49, 87.53 -0.14, 87.99 -5.68 M88.25 -5.36 C92.41 -2.46, 97.03 -0.72, 99.64 2.16 M87.98 -5.2 C91.13 -3.62, 95.39 -0.94, 101.62 1.41 M101.04 1.52 C101.04 1.52, 101.04 1.52, 101.04 1.52 M101.04 1.52 C101.04 1.52, 101.04 1.52, 101.04 1.52" stroke="#5f3dc4" stroke-width="2" fill="none"></path></g></g><mask></mask><g stroke-linecap="round"><g transform="translate(391.15617998912853 174.2636673423367) rotate(0 50.46813829739972 -0.4993810925454909)"><path d="M-0.4 0.43 C16.47 0.56, 84.73 0.39, 101.34 0.42 M1.59 -0.38 C18.37 -0.6, 84.25 -1.32, 100.92 -1.48" stroke="#000000" stroke-width="2" fill="none"></path></g><g transform="translate(391.15617998912853 174.2636673423367) rotate(0 50.46813829739972 -0.4993810925454909)"><path d="M100.84 -2.53 L86.42 5.57 L87.24 -6.68 L101.39 -0.58" stroke="none" stroke-width="0" fill="#000000" fill-rule="evenodd"></path><path d="M101.46 -0.23 C97.23 -0.89, 93.32 3.37, 86.22 5.55 M101.2 -1.16 C96.1 1.04, 90.1 3.73, 87.5 4.29 M88.13 5.14 C88.24 0.61, 87.53 -1.8, 86.16 -8.66 M87.07 4.78 C87.87 0.43, 87.05 -4.65, 87.45 -7.04 M86.34 -8.85 C91.56 -5.41, 94.34 -3.71, 101.02 -0.06 M86.91 -7.11 C90.1 -6.13, 93.61 -4.62, 101.13 -1.09 M100.92 -1.48 C100.92 -1.48, 100.92 -1.48, 100.92 -1.48 M100.92 -1.48 C100.92 -1.48, 100.92 -1.48, 100.92 -1.48" stroke="#000000" stroke-width="2" fill="none"></path></g></g><mask></mask><g stroke-linecap="round"><g transform="translate(583.8378522869023 174.2636673423358) rotate(0 50.001026099165074 -0.7533168275413118)"><path d="M0.34 -0.01 C17.27 0.14, 84.18 0.28, 100.94 0.29 M-0.94 -1.06 C15.94 -1.24, 83.42 -2.09, 100.31 -1.68" stroke="#000000" stroke-width="2" fill="none"></path></g><g transform="translate(583.8378522869023 174.2636673423358) rotate(0 50.001026099165074 -0.7533168275413118)"><path d="M101.7 -2.35 L87.61 5.42 L85.71 -9.58 L101.59 -0.5" stroke="none" stroke-width="0" fill="#000000" fill-rule="evenodd"></path><path d="M100.3 -0.94 C97.27 0.58, 93.59 1, 87.11 4.33 M100.43 -2.1 C96.6 -0.67, 94.23 0.93, 87.09 4.54 M87.12 4.41 C87.52 0.93, 85.7 -3.02, 86.21 -6.99 M87.3 4.22 C86.29 -0.69, 86.46 -5.56, 86.99 -8.26 M86.7 -7.02 C91.15 -7.22, 95.52 -4.59, 99.21 -1.74 M87.05 -8.11 C89.86 -6.6, 93.46 -4.5, 100.7 -1.61 M100.31 -1.68 C100.31 -1.68, 100.31 -1.68, 100.31 -1.68 M100.31 -1.68 C100.31 -1.68, 100.31 -1.68, 100.31 -1.68" stroke="#000000" stroke-width="2" fill="none"></path></g></g><mask></mask><g stroke-linecap="round" transform="translate(112.61634455982971 10) rotate(0 43.35680270517332 34.799539013362846)"><path d="M1.93 -1.13 L86.92 -0.86 L84.8 69.25 L-1.56 71.36" stroke="none" stroke-width="0" fill="#ffff"></path><path d="M-0.03 -0.88 C20.32 -1.23, 44.09 1.23, 86.05 -0.75 M0.7 -0.53 C27.17 -0.17, 56.43 -0.43, 86.85 0.87 M87.97 -1.21 C88.37 17.61, 86.45 36.96, 87.22 70.8 M86.54 -0.45 C85.7 26.95, 87.15 51.98, 86.65 69.23 M88.48 71.43 C63.51 69.39, 38.34 70.84, -1.82 71.15 M86.55 69.4 C54.33 69.1, 21.61 69.01, -0.12 69.82 M-1.18 71.28 C1.07 55.43, -0.02 40.48, 0.29 -1.66 M-0.91 70.03 C0.72 42.72, -0.66 17.54, 0.06 0.02" stroke="#5f3dc4" stroke-width="2" fill="none"></path></g><g transform="translate(122.47314726500304 31.799539013362846) rotate(0 33.5 13)"><text x="33.5" y="19" font-family="Virgil, Segoe UI Emoji" font-size="20px" fill="#5f3dc4" text-anchor="middle" style="white-space: pre;" direction="ltr">Export</text></g></svg>