<svg version="1.1" xmlns="http://www.w3.org/2000/svg" viewBox="0 0 408.51885950127735 114.88371269693221" width="408.51885950127735" height="114.88371269693221">
  <!-- svg-source:excalidraw -->
  
  <defs>
    <style class="style-fonts">
      @font-face {
        font-family: "Virgil";
        src: url("https://excalidraw.com/Virgil.woff2");
      }
      @font-face {
        font-family: "Cascadia";
        src: url("https://excalidraw.com/Cascadia.woff2");
      }
    </style>
  </defs>
  <g transform="translate(10 52.88371269693221) rotate(0 49.5 26)"><text x="49.5" y="19" font-family="Virgil, Segoe UI Emoji" font-size="20px" fill="#000000" text-anchor="middle" style="white-space: pre;" direction="ltr">Component</text><text x="49.5" y="45" font-family="Virgil, Segoe UI Emoji" font-size="20px" fill="#000000" text-anchor="middle" style="white-space: pre;" direction="ltr">Model</text></g><g transform="translate(345.51885950127735 45.596998250910815) rotate(0 26.5 26)"><text x="26.5" y="19" font-family="Virgil, Segoe UI Emoji" font-size="20px" fill="#000000" text-anchor="middle" style="white-space: pre;" direction="ltr">Core</text><text x="26.5" y="45" font-family="Virgil, Segoe UI Emoji" font-size="20px" fill="#000000" text-anchor="middle" style="white-space: pre;" direction="ltr">Wasm</text></g><g stroke-linecap="round"><g transform="translate(336.34600693403354 74.45506923986352) rotate(0 -110.62739205970729 0.6709714379333036)"><path d="M-0.48 0.09 C-56.5 -1.12, -117.89 -0.09, -219.29 1.77 M-0.32 -0.27 C-76.6 1.02, -152.84 1.68, -220.94 0.77" stroke="#5f3dc4" stroke-width="2" fill="none"></path></g><g transform="translate(336.34600693403354 74.45506923986352) rotate(0 -110.62739205970729 0.6709714379333036)"><path d="M-1.79 1.17 L-16.03 6.46 L-13.37 -7.14 L0.84 -0.88" stroke="none" stroke-width="0" fill="#5f3dc4" fill-rule="evenodd"></path><path d="M-0.9 0.18 C-2.64 1.56, -8.99 4.1, -13.12 7.85 M-0.75 -0.14 C-5.02 2.31, -9.32 5.04, -14.55 6.97 M-14.22 7.64 C-13.77 1.42, -15.05 -3.32, -13.58 -6.1 M-14.37 7.04 C-13.96 3.07, -14.17 -1.04, -14.19 -5.83 M-12.67 -5.74 C-8.32 -3.85, -4.06 -2.5, -1.59 -1.03 M-14.43 -6.28 C-9.93 -5.05, -7.48 -3, -0.67 0.14 M-0.48 0.09 C-0.48 0.09, -0.48 0.09, -0.48 0.09 M-0.48 0.09 C-0.48 0.09, -0.48 0.09, -0.48 0.09" stroke="#5f3dc4" stroke-width="2" fill="none"></path></g><g transform="translate(336.34600693403354 74.45506923986352) rotate(0 -110.62739205970729 0.6709714379333036)"><path d="M-222.25 1.84 L-209.27 -5.48 L-206.67 6.28 L-219.61 -0.21" stroke="none" stroke-width="0" fill="#5f3dc4" fill-rule="evenodd"></path><path d="M-221.36 0.85 C-215.83 -0.95, -214.99 -1.75, -206.36 -4.1 M-221.21 0.53 C-216.12 -1.57, -210.94 -3.23, -207.79 -4.97 M-207.46 -4.31 C-206.8 -1.53, -208.1 2.71, -206.88 7.31 M-207.61 -4.9 C-206.98 -1.82, -207.2 1.13, -207.49 7.59 M-205.97 7.67 C-211.22 4.88, -216.5 1.75, -222.04 -0.35 M-207.73 7.14 C-210.5 5.12, -215.26 3.79, -221.12 0.81 M-220.94 0.77 C-220.94 0.77, -220.94 0.77, -220.94 0.77 M-220.94 0.77 C-220.94 0.77, -220.94 0.77, -220.94 0.77" stroke="#5f3dc4" stroke-width="2" fill="none"></path></g></g><mask></mask><g transform="translate(184.00951445500505 10) rotate(0 44.5 26)"><text x="44.5" y="19" font-family="Virgil, Segoe UI Emoji" font-size="20px" fill="#5f3dc4" text-anchor="middle" style="white-space: pre;" direction="ltr">Canonical</text><text x="44.5" y="45" font-family="Virgil, Segoe UI Emoji" font-size="20px" fill="#5f3dc4" text-anchor="middle" style="white-space: pre;" direction="ltr">ABI</text></g></svg>