<svg version="1.1" xmlns="http://www.w3.org/2000/svg" viewBox="0 0 711.2661120979349 342.60623431287695" width="711.2661120979349" height="342.60623431287695">
  <!-- svg-source:excalidraw -->
  
  <defs>
    <style class="style-fonts">
      @font-face {
        font-family: "Virgil";
        src: url("https://excalidraw.com/Virgil.woff2");
      }
      @font-face {
        font-family: "Cascadia";
        src: url("https://excalidraw.com/Cascadia.woff2");
      }
    </style>
  </defs>
  <g stroke-linecap="round" transform="translate(20.916311095088076 48.094969020882445) rotate(0 147.0104012718083 141.28432734885507)"><path d="M-0.98 0.93 C68.53 -0.43, 138.71 -0.93, 292.7 1.48 M0 -0.43 C103.22 -2.26, 205.13 -2.75, 294.53 -0.06 M293.44 -0.85 C294.33 88.58, 292.88 178.1, 295.37 282.93 M293.88 -0.72 C293.36 89.75, 294.27 179.12, 293.92 282.17 M294.82 282.73 C230.07 283.13, 165.42 284.44, -0.3 282.22 M293.4 283.04 C209.59 281.85, 125.12 281.36, 0.1 283.06 M1.12 281.54 C-1.91 214.34, -0.89 148.81, -1.48 -0.53 M0.18 282.53 C1.57 215.31, 2.15 147.25, 0.46 -0.06" stroke="#5f3dc4" stroke-width="2" fill="none"></path></g><g transform="translate(10 16.130322296048007) rotate(0 49.5 13)"><text x="49.5" y="19" font-family="Virgil, Segoe UI Emoji" font-size="20px" fill="#5f3dc4" text-anchor="middle" style="white-space: pre;" direction="ltr">Component</text></g><g transform="translate(135.7355038462465 221.86511029272197) rotate(0 33 13)"><text x="33" y="19" font-family="Virgil, Segoe UI Emoji" font-size="20px" fill="#000000" text-anchor="middle" style="white-space: pre;" direction="ltr">Module</text></g><g stroke-linecap="round" transform="translate(53.81085190933959 164.05811437913758) rotate(0 115.95286028603073 66.2707703505514)"><path d="M1.2 -0.01 C82.58 1.05, 169.01 0.12, 233.54 -0.01 M-0.45 -0.73 C56.84 0.35, 112.67 0.56, 232.29 -0.32 M229.94 -1.55 C233.63 32.89, 232.21 64.91, 232.27 132.17 M232.12 -0.47 C230.47 26.77, 229.79 53.96, 232.81 133.08 M232.02 132.41 C159.46 130.26, 87.49 129.26, -0.92 131.14 M231.86 132.52 C147.61 134.36, 62.54 134.14, 0.78 133.16 M-0.06 133.07 C-1.02 101.06, -0.28 69.47, 1.6 0.47 M0.7 133.01 C0.67 93.33, 0.41 53.96, 0.05 0.25" stroke="#000000" stroke-width="2" fill="none"></path></g><g stroke-linecap="round" transform="translate(121.91563933248085 135.7361724479365) rotate(0 43.356802705173436 34.799539013362846)"><path d="M1.56 1.93 L85.77 -0.07 L86.36 67.97 L1.72 70.43" stroke="none" stroke-width="0" fill="#ffff"></path><path d="M-1.74 1.65 C29.53 1.64, 62.54 -2.2, 86.89 0.03 M0.16 0.31 C17.07 -1.25, 36.34 -0.59, 86.94 -0.26 M85.14 0.91 C87.25 14.6, 85.4 29.81, 85.53 70.23 M87.01 0.19 C87.17 20.51, 85.96 41.34, 87.43 70.19 M86.66 69.14 C59.03 68.54, 30.12 71.68, -1.45 71.24 M86.43 68.77 C64.81 70.63, 41.18 69.93, -0.51 69.93 M-0.85 69.39 C-0.62 50.84, 1.23 34.37, -0.46 1.25 M-0.63 68.92 C1.51 51.42, 0.26 31.92, -0.96 -0.92" stroke="#000000" stroke-width="2" fill="none"></path></g><g transform="translate(131.77244203765417 157.53571146129934) rotate(0 33.5 13)"><text x="33.5" y="19" font-family="Virgil, Segoe UI Emoji" font-size="20px" fill="#000000" text-anchor="middle" style="white-space: pre;" direction="ltr">Export</text></g><g stroke-linecap="round" transform="translate(126.25043699317939 10) rotate(0 43.356802705173436 34.799539013362846)"><path d="M-1.62 1.1 L85.37 1.49 L88.12 67.92 L-1.48 70.81" stroke="none" stroke-width="0" fill="#ffff"></path><path d="M1.01 -0.75 C19.94 -2.67, 39.25 0.8, 88.65 -0.94 M0.86 0.42 C25.04 1.02, 51.59 1.31, 86.17 0.23 M88.1 0.32 C85.14 15.6, 85.21 30.24, 88.3 68.11 M86.21 -0.24 C86.13 21.04, 86.09 40.92, 85.86 69.13 M87.92 67.75 C63.22 69.99, 35.58 68.54, 1.78 69.51 M86.12 69.7 C60.27 70.28, 33.11 69.43, 0.68 68.91 M0.42 70.48 C-0.81 56.63, -0.14 40.03, 1.27 0.37 M-0.01 69.89 C-0.06 48.22, 0.4 25.49, -0.48 -0.05" stroke="#5f3dc4" stroke-width="2" fill="none"></path></g><g transform="translate(136.10723969835294 31.799539013362846) rotate(0 33.5 13)"><text x="33.5" y="19" font-family="Virgil, Segoe UI Emoji" font-size="20px" fill="#5f3dc4" text-anchor="middle" style="white-space: pre;" direction="ltr">Export</text></g><g stroke-linecap="round" transform="translate(407.2453095543185 50.03757961516703) rotate(0 147.01040127180818 141.28432734885496)"><path d="M-1.46 0.16 C109.72 -2.67, 220.84 -1.64, 293.24 1.27 M0.24 -0.02 C92.91 0.32, 185.39 1.09, 293.42 -0.58 M292.51 0.34 C295.71 76.97, 295.7 155.87, 295.43 281.89 M293.87 0.22 C291.27 104.81, 291.76 209.47, 293.84 283.3 M295.23 283.07 C183.84 284.25, 74.87 282.62, 0.46 282.62 M294.08 282.16 C229.58 284.62, 164.69 284.76, 0.13 282.33 M-1.21 283.81 C-2.97 219.74, -0.34 153.7, -1.19 -0.83 M0.51 283.17 C1.72 186.27, 2.5 91.71, 0.12 -0.47" stroke="#5f3dc4" stroke-width="2" fill="none"></path></g><g transform="translate(396.32899845923 18.072932890332595) rotate(0 49.5 13)"><text x="49.5" y="19" font-family="Virgil, Segoe UI Emoji" font-size="20px" fill="#5f3dc4" text-anchor="middle" style="white-space: pre;" direction="ltr">Component</text></g><g transform="translate(522.0645023054765 223.80772088700633) rotate(0 33 13)"><text x="33" y="19" font-family="Virgil, Segoe UI Emoji" font-size="20px" fill="#000000" text-anchor="middle" style="white-space: pre;" direction="ltr">Module</text></g><g stroke-linecap="round" transform="translate(440.13985036857025 166.0007249734217) rotate(0 115.95286028603073 66.2707703505514)"><path d="M-1.51 -1.05 C46.52 0.65, 95.16 1.8, 231.27 -0.81 M-0.84 -0.11 C77.06 -1.13, 153.38 -0.64, 232.08 0.84 M229.94 1.63 C230.81 28.44, 231.31 54.58, 229.91 132.72 M232.41 -0.15 C233.1 36.85, 233.24 74.88, 231.03 132.9 M232.93 132.61 C142.71 132.31, 55.23 130.43, -0.06 133.93 M232.2 132.61 C160.91 133.37, 88.73 132.6, 0.68 132.48 M1.86 134.38 C-1.57 101.73, -2.17 74.81, -1.87 -1.97 M-0.7 133.18 C-0.17 84.08, -1.66 35.66, -0.98 -0.61" stroke="#000000" stroke-width="2" fill="none"></path></g><g stroke-linecap="round" transform="translate(508.24463779171106 139.47444409740615) rotate(0 43.35680270517355 34.799539013362846)"><path d="M-0.67 -1.67 L86.52 -1.7 L85.51 71.31 L0.37 70.45" stroke="none" stroke-width="0" fill="#ffff"></path><path d="M-1.24 -0.39 C25.89 2.49, 54.18 0.02, 85.75 0.64 M-0.13 0.05 C24.97 0.08, 51.34 1.06, 87.71 -0.99 M88.34 -1.4 C89.14 21.56, 88.68 42.9, 86.89 69.19 M86.57 0.82 C85.94 23.82, 86.9 44.86, 87.07 70.41 M86.79 68.62 C58.38 70.19, 27.19 70.05, 1.64 69.76 M86.79 70.14 C65.64 69.57, 43.48 70.7, -0.08 68.81 M1.84 69.11 C-1 41.97, 1.34 14.64, -1.97 1.33 M0.64 70.48 C0.43 42.62, 0.62 15.9, -0.61 -0.84" stroke="#000000" stroke-width="2" fill="none"></path></g><g transform="translate(519.1014404968844 161.273983110769) rotate(0 32.5 13)"><text x="32.5" y="19" font-family="Virgil, Segoe UI Emoji" font-size="20px" fill="#000000" text-anchor="middle" style="white-space: pre;" direction="ltr">Import</text></g><g stroke-linecap="round" transform="translate(512.5794354524094 11.94261059428436) rotate(0 43.35680270517355 34.799539013362846)"><path d="M-0.2 -1.7 L85.51 1.71 L87.09 70.45 L-1.52 68.06" stroke="none" stroke-width="0" fill="#ffff"></path><path d="M-1.04 1.72 C18.61 -0.58, 35.64 0.81, 86.66 0.46 M-0.81 -0.78 C17.24 0.16, 35.91 -1.04, 86.94 0.83 M88.56 -0.89 C88.67 12.06, 87.46 27.7, 87.28 68.04 M86.48 0.96 C87.34 23.52, 86.97 49.61, 87.05 69.21 M87.34 69.67 C53.86 69.11, 25.85 69.34, -1.1 70.28 M86.89 69.28 C56.99 70.87, 28.64 69.27, 0.81 68.79 M-1.56 68.51 C0.14 40.37, -2.61 16.22, 1.57 -0.79 M0.15 68.98 C-0.1 52.61, -1.05 36.74, -0.34 -0.84" stroke="#5f3dc4" stroke-width="2" fill="none"></path></g><g transform="translate(523.4362381575827 33.74214960764721) rotate(0 32.5 13)"><text x="32.5" y="19" font-family="Virgil, Segoe UI Emoji" font-size="20px" fill="#5f3dc4" text-anchor="middle" style="white-space: pre;" direction="ltr">Import</text></g><g stroke-linecap="round"><g transform="translate(166.23655259839165 80.59907802672569) rotate(0 0.35228060465715316 27.214150510560216)"><path d="M1.3 0.63 C1.93 10.7, -1.08 24.56, -0.86 54.36 M-0.09 0.07 C1.06 19.47, 0.53 37.17, 1.57 54.34" stroke="#364fc7" stroke-width="2" fill="none"></path></g><g transform="translate(166.23655259839165 80.59907802672569) rotate(0 0.35228060465715316 27.214150510560216)"><path d="M1.88 -0.93 L8.61 16.03 L-4.08 13.53 L2.36 0.86" stroke="none" stroke-width="0" fill="#364fc7" fill-rule="evenodd"></path><path d="M2.28 1.11 C3.97 2.63, 2.82 7.01, 5.45 15.31 M1.23 0.68 C3.87 5.92, 5.19 9.9, 7.27 15.29 M7.49 14.97 C2.52 14.31, -0.62 14.5, -6.62 13.53 M6.88 14.7 C4.42 14.92, 1.13 14.32, -6.09 14.29 M-5.69 14.81 C-2.39 8.98, -1.86 2.74, 0.72 0.74 M-6.09 13.87 C-3.44 10.79, -3.19 7.98, 1.39 0.13 M1.3 0.63 C1.3 0.63, 1.3 0.63, 1.3 0.63 M1.3 0.63 C1.3 0.63, 1.3 0.63, 1.3 0.63" stroke="#364fc7" stroke-width="2" fill="none"></path></g></g><mask></mask><g stroke-linecap="round"><g transform="translate(553.1365442089175 138.47444409740615) rotate(0 0.8633174866347417 -26.86818805959649)"><path d="M-0.04 0.48 C1.23 -10.03, -0.13 -23.13, 1.13 -53.09 M0.05 0.63 C1.2 -20.71, 0.58 -42.32, 1.77 -54.37" stroke="#e67700" stroke-width="2" fill="none"></path></g><g transform="translate(553.1365442089175 138.47444409740615) rotate(0 0.8633174866347417 -26.86818805959649)"><path d="M1.71 2.4 L-4.2 -11.87 L8.39 -14.23 L0.88 -0.06" stroke="none" stroke-width="0" fill="#e67700" fill-rule="evenodd"></path><path d="M-0.07 0.84 C-0.78 -1.23, -3.45 -5.25, -6.88 -12.23 M-0.01 0.95 C-2.04 -4.67, -5.45 -10.5, -6.41 -13.18 M-6.67 -13.23 C-2.18 -13.37, -1.59 -13.04, 6.71 -13.84 M-6.11 -12.84 C-2.3 -13.02, 1.24 -12.89, 6.18 -12.57 M7.72 -12 C3.35 -9.82, 2.6 -3.9, -0.56 1.97 M7.12 -12.36 C4.16 -8.11, 2.2 -4.68, -0.53 -0.04 M-0.04 0.48 C-0.04 0.48, -0.04 0.48, -0.04 0.48 M-0.04 0.48 C-0.04 0.48, -0.04 0.48, -0.04 0.48" stroke="#e67700" stroke-width="2" fill="none"></path></g></g><mask></mask><g transform="translate(181.64164682779756 97.96708191134962) rotate(0 19.000000000000114 13)"><text x="19" y="19" font-family="Virgil, Segoe UI Emoji" font-size="20px" fill="#364fc7" text-anchor="middle" style="white-space: pre;" direction="ltr">Lift</text></g><g transform="translate(568.2488794069152 95.19564035072153) rotate(0 28 13)"><text x="28" y="19" font-family="Virgil, Segoe UI Emoji" font-size="20px" fill="#e67700" text-anchor="middle" style="white-space: pre;" direction="ltr">Lower</text></g></svg>