<svg version="1.1" xmlns="http://www.w3.org/2000/svg" viewBox="0 0 546.0168248534203 359.89650573393305" width="546.0168248534203" height="359.89650573393305">
  <!-- svg-source:excalidraw -->
  
  <defs>
    <style class="style-fonts">
      @font-face {
        font-family: "Virgil";
        src: url("https://excalidraw.com/Virgil.woff2");
      }
      @font-face {
        font-family: "Cascadia";
        src: url("https://excalidraw.com/Cascadia.woff2");
      }
    </style>
  </defs>
  <g stroke-linecap="round" transform="translate(165.60747696572048 10) rotate(0 105.5 66)"><path d="M-1.33 0.12 C61.65 1.34, 126.92 0.35, 212.08 -1.1 M-0.19 -0.85 C47.73 -2.02, 95.48 -1.31, 211.24 0.26 M210.71 0.52 C209.88 28.3, 209.29 58.85, 209.91 131.12 M211.31 -0.39 C210.83 45.99, 209.98 92.16, 210.86 131.78 M209.79 131.82 C128.7 134.01, 46.17 133.41, -0.41 131.15 M210.21 132.51 C158.68 133.74, 107.55 133.89, -0.75 131.53 M-1.24 133.14 C0.13 106.18, 0.01 79.53, -0.27 0.38 M-0.79 132.86 C0.65 104.98, 0.37 75.49, 0.1 0.93" stroke="#000000" stroke-width="2" fill="none"></path></g><g transform="translate(221.60747696572048 50) rotate(0 49.5 26)"><text x="49.5" y="19" font-family="Virgil, Segoe UI Emoji" font-size="20px" fill="#000000" text-anchor="middle" style="white-space: pre;" direction="ltr">Component</text><text x="49.5" y="45" font-family="Virgil, Segoe UI Emoji" font-size="20px" fill="#000000" text-anchor="middle" style="white-space: pre;" direction="ltr">Model</text></g><g stroke-linecap="round" transform="translate(166.5539980749188 217.896505733933) rotate(0 105.5 66.00000000000003)"><path d="M-1 0.2 C78.84 -0.22, 155.13 -1.74, 211.86 -0.02 M0.32 -0.76 C53.69 -2.11, 107.95 -1.58, 211.13 -0.74 M212.13 1.1 C211.69 28.4, 210.32 54.2, 212.57 132.07 M211.61 0.26 C211.45 47.28, 211.2 94.38, 210.71 131.18 M212.23 132 C130.09 132.29, 50.22 129.82, 0.28 130.34 M211.05 132.51 C151.03 131.96, 90.89 131.72, 0.83 132.85 M1.5 131.63 C1.37 92.79, -1.19 55.13, -0.86 -0.08 M0.45 132.02 C0.3 103.64, 1.45 73.45, 0.55 0.4" stroke="#000000" stroke-width="2" fill="none"></path></g><g transform="translate(245.5539980749188 257.89650573393305) rotate(0 26.5 26)"><text x="26.5" y="19" font-family="Virgil, Segoe UI Emoji" font-size="20px" fill="#000000" text-anchor="middle" style="white-space: pre;" direction="ltr">Core</text><text x="26.5" y="45" font-family="Virgil, Segoe UI Emoji" font-size="20px" fill="#000000" text-anchor="middle" style="white-space: pre;" direction="ltr">Wasm</text></g><g stroke-linecap="round"><g transform="translate(379.01249846254086 289.80581514761377) rotate(0 32.03798213016444 -120.73679110732903)"><path d="M-0.19 -0.72 C9.66 -7.82, 49.3 -9.15, 59.17 -42.04 C69.03 -74.94, 69.31 -164.98, 59.02 -198.1 C48.73 -231.22, 7.74 -233.78, -2.58 -240.76" stroke="#e67700" stroke-width="2.5" fill="none" stroke-dasharray="8 10"></path></g><g transform="translate(379.01249846254086 289.80581514761377) rotate(0 32.03798213016444 -120.73679110732903)"><path d="M0.45 -1.2 L11.43 -12.07 L15.77 -2.17 L1.69 -2.24" stroke="none" stroke-width="0" fill="#e67700" fill-rule="evenodd"></path><path d="M-1.09 -0.26 C1.53 -5.3, 4.83 -8.36, 9.15 -13.22 M9.42 -12.1 C10.43 -9.03, 12.92 -4.75, 13.85 -0.5 M16.09 1.01 C10.15 -0.05, 8.33 -0.14, -0.36 -0.94 M-0.19 -0.72 C-0.19 -0.72, -0.19 -0.72, -0.19 -0.72" stroke="#e67700" stroke-width="2.5" fill="none"></path></g></g><mask></mask><g stroke-linecap="round"><g transform="translate(162.73177392182401 49.29692201080593) rotate(0 -36.984883426309125 121.57103000057404)"><path d="M-0.84 0.08 C-11.16 7.15, -51.31 10.2, -62.69 43.03 C-74.06 75.87, -79.67 163.75, -69.1 197.09 C-58.52 230.42, -11.26 235.38, 0.74 243.06" stroke="#1864ab" stroke-width="2.5" fill="none" stroke-dasharray="8 10"></path></g><g transform="translate(162.73177392182401 49.29692201080593) rotate(0 -36.984883426309125 121.57103000057404)"><path d="M-2.66 1.01 L-12.58 11.01 L-17.52 -1.75 L-0.48 -0.14" stroke="none" stroke-width="0" fill="#1864ab" fill-rule="evenodd"></path><path d="M-0.74 1.5 C-1.74 3.49, -5.01 4.09, -11.12 12.86 M-11.77 12.51 C-11.05 8.06, -12.81 4.2, -15.1 -0.7 M-15.82 -1.03 C-12.04 -0.29, -8.51 0.56, -0.92 -1.21 M-0.84 0.08 C-0.84 0.08, -0.84 0.08, -0.84 0.08" stroke="#1864ab" stroke-width="2.5" fill="none"></path></g></g><mask></mask><g transform="translate(456.0168248534203 147.93728428116418) rotate(0 40 13)"><text x="40" y="19" font-family="Virgil, Segoe UI Emoji" font-size="20px" fill="#e67700" text-anchor="middle" style="white-space: pre;" direction="ltr">Lowering</text></g><g transform="translate(10 149.755662753477) rotate(0 31 13)"><text x="31" y="19" font-family="Virgil, Segoe UI Emoji" font-size="20px" fill="#1864ab" text-anchor="middle" style="white-space: pre;" direction="ltr">Lifting</text></g></svg>