<svg version="1.1" xmlns="http://www.w3.org/2000/svg" viewBox="0 0 777.8587644465265 273.81493449702793" width="777.8587644465265" height="273.81493449702793">
  <!-- svg-source:excalidraw -->
  
  <defs>
    <style class="style-fonts">
      @font-face {
        font-family: "Virgil";
        src: url("https://excalidraw.com/Virgil.woff2");
      }
      @font-face {
        font-family: "Cascadia";
        src: url("https://excalidraw.com/Cascadia.woff2");
      }
    </style>
  </defs>
  <g stroke-linecap="round" transform="translate(89.61784568951498 140.62324923496362) rotate(0 18.98986790074673 16.60665295542185)"><path d="M0 0 C0 0, 0 0, 0 0 M0 0 C0 0, 0 0, 0 0 M-1.15 10.76 C5.52 7.33, 7.72 1.01, 11.76 -0.69 M-0.31 11.82 C3.43 8.74, 5.72 5.84, 10.39 0.73 M-1.36 24.74 C8.66 16.66, 17.22 8.1, 20.11 -0.08 M-0.68 23.45 C7.88 15.93, 12.98 9, 20.71 -0.7 M2.15 32.66 C12.14 22.64, 21.04 11.06, 31.21 1.47 M2.57 34.36 C8.76 25.36, 16.73 17.6, 32.14 -1.07 M11.2 34.79 C19.31 26.2, 29.89 17.13, 40.6 2.53 M12.92 33.6 C18.39 27.25, 24.45 20.07, 41.35 1.85 M24.52 34.94 C29.28 26.53, 34.86 20.55, 39.72 13.64 M23.75 33.83 C29.49 26.57, 36.16 20.1, 40.81 14.87 M33.74 34.16 C35.17 32.85, 36.72 30.23, 41.5 26.3 M34.1 34.34 C35.06 32.1, 36.85 30.54, 40.54 26.12" stroke="#4c6ef5" stroke-width="1" fill="none"></path><path d="M0.43 -0.06 C10.22 1.01, 16.51 -1.66, 39.63 1.71 M-0.02 0.93 C14.49 0.54, 27.74 0.68, 38.34 -0.52 M39.89 -1.27 C36.69 10.3, 36.71 17.81, 36.81 34.32 M37.04 0.77 C37.3 12.61, 38.91 23.67, 37.82 34.04 M38.93 32.71 C24.99 32.22, 9.62 32.86, -1.4 34.17 M37.18 34.09 C25.07 33.02, 13.05 32.71, -0.16 33.59 M-0.68 33 C1.82 25.19, 1.83 15.3, -1.93 -0.7 M0.74 32.71 C-0.74 24.75, 0.23 18.55, 0.52 0.19" stroke="#000000" stroke-width="2" fill="none"></path></g><g stroke-linecap="round" transform="translate(133.0321744272096 141.17923825561365) rotate(0 18.98986790074673 16.60665295542185)"><path d="M0 0 C0 0, 0 0, 0 0 M0 0 C0 0, 0 0, 0 0 M1.28 11.94 C3.31 9.91, 5.55 5.53, 10.4 -1.55 M0.9 11.86 C3.76 8.09, 9.17 1.77, 10.99 -0.65 M1.42 24.3 C6.13 17.09, 16.69 7.75, 22.03 -1.9 M-0.72 23.35 C4.91 18.32, 10.9 10.97, 21.25 -0.54 M2.27 34.43 C13.43 23.2, 24.31 10.94, 32.12 0.64 M2.33 35.57 C11.46 21.99, 21.17 11.32, 32.51 -0.94 M11.08 34.43 C19.6 23.46, 28.16 14.97, 40.46 0.2 M12.47 33.72 C18.24 25.8, 26.22 19.16, 40.35 2.06 M21.19 33.89 C27.87 29.5, 29.47 25.02, 40.81 13.36 M22.87 35.52 C28.21 28.11, 33.56 21.46, 41.13 14.22 M33.08 34.03 C36.14 31.67, 38.71 28.17, 41.88 27.18 M33.74 34.25 C36.26 31.5, 38.72 28.37, 41.28 25.74" stroke="#4c6ef5" stroke-width="1" fill="none"></path><path d="M1.88 -1.57 C11.48 -1.68, 23.99 1.66, 36.3 -0.97 M-0.24 0.73 C9.46 -0.73, 16.73 0.11, 38.37 -0.69 M36.41 1.04 C36.57 10.62, 37.23 19.88, 39.8 32.38 M38.8 -0.9 C38.14 7.78, 37.64 15.11, 37.67 33.36 M38.19 35.01 C24.5 33.46, 9.09 33.68, -1.38 33.49 M37.9 32.67 C23.74 33.63, 8.98 33.33, 0.56 33.4 M1.05 31.76 C0.13 23.97, -1.61 15.79, 1.62 0.95 M0.47 33.08 C-0.73 24.51, 0.54 15.04, 0.31 -0.86" stroke="#000000" stroke-width="2" fill="none"></path></g><g stroke-linecap="round" transform="translate(178.51390530107574 141.84808723905235) rotate(0 18.98986790074673 16.60665295542185)"><path d="M0 0 C0 0, 0 0, 0 0 M0 0 C0 0, 0 0, 0 0 M-1.41 11.92 C3.03 7.55, 6.64 2.15, 9.54 -0.22 M0.34 12.26 C3.45 7.85, 5.68 4.4, 10.7 0.46 M-1.59 23.48 C4.37 16.87, 13.15 9.8, 20.39 -1.39 M0.19 23.55 C6.7 17.66, 13.15 8.85, 21.23 -1.05 M2.72 32.92 C11.13 21.51, 21.96 11.13, 30.89 0.18 M2.32 34.89 C13.62 20.24, 25.82 6.64, 32.37 -0.98 M12.97 35.42 C24.45 23.67, 32.6 8.59, 39.49 2.11 M12.58 35.02 C21.78 23.85, 33.09 10.95, 41.2 2.29 M21.38 35.73 C31.09 25.88, 34.24 18.34, 38.85 16.11 M23.7 35.11 C26.15 30.64, 30.7 25.25, 41.63 13.96 M34.3 34.1 C35.25 31.46, 38.1 29.07, 41.13 25.62 M33.58 34.04 C36.13 31.61, 38.71 28.3, 40.4 25.7" stroke="#4c6ef5" stroke-width="1" fill="none"></path><path d="M-1.32 -1.84 C14.56 -1.33, 26.93 -0.27, 36.15 0.27 M0.56 -0.11 C14.94 0, 28.4 0.2, 38.71 -0.65 M37.16 -1.55 C37.3 10.65, 37.67 23.76, 37.31 34.29 M37.24 0.37 C38.33 9.36, 39.09 19.59, 38.09 33.24 M39.63 34.56 C27.95 32.89, 15.89 34.19, 0.38 32.66 M37.66 32.3 C28.08 33.36, 15.52 34.55, 0.78 32.29 M-1.22 33.04 C1.41 21.97, -1.61 12.02, 1.13 1.08 M0.77 32.74 C-0.68 21.24, -0.46 11.3, -0.37 -0.33" stroke="#000000" stroke-width="2" fill="none"></path></g><g stroke-linecap="round" transform="translate(222.65793820806357 142.51693622249286) rotate(0 18.98986790074673 16.60665295542185)"><path d="M0 0 C0 0, 0 0, 0 0 M0 0 C0 0, 0 0, 0 0 M-0.63 12.79 C3.39 8.44, 6.26 4.65, 9.28 0.38 M0.78 11.36 C3.17 7.56, 7.04 4.44, 10.62 -0.26 M1.86 25.22 C5.96 17.71, 14.08 9.82, 20.13 1.1 M-0.33 23.26 C4.06 17.68, 10.34 12.54, 21.44 0.59 M3.38 34.09 C12.91 23.79, 23.62 10.19, 33.21 1.14 M1.72 33.99 C13.39 22.53, 23.24 10.56, 32.77 0.54 M13.88 32.72 C22.38 23.54, 27.51 17.35, 39.06 2.29 M12.26 34.12 C21.04 25.7, 28.87 15.86, 40.12 2.99 M22.73 32.87 C27.95 30.46, 31.87 25.15, 39.39 13.39 M21.99 35.26 C27.85 29.37, 30.81 26.22, 40.41 13.5 M34.34 34.57 C34.61 32.23, 37.99 30.86, 40.67 27.02 M33.42 34.67 C36.18 31.5, 38.94 28.12, 41.25 26.2" stroke="#4c6ef5" stroke-width="1" fill="none"></path><path d="M-0.46 -1.51 C12.1 1.2, 18.52 0.53, 36.45 1.22 M0.11 -0.93 C9.94 0.34, 18.71 0.17, 37.07 -0.33 M36.52 -1.53 C38.97 11.77, 37.16 25, 37.03 34.28 M37.89 0.54 C38.74 10.79, 38.74 20.41, 38.35 33.54 M39.89 32.47 C25.72 32.03, 16.92 34.69, -1.68 33.19 M37.9 32.47 C29.54 32.29, 22.42 32.93, -0.96 32.67 M-1.72 31.3 C-1.52 22.54, 1.15 11.13, -0.12 -1.95 M-0.33 33.77 C-0.39 25.9, -0.56 19.51, -0.4 -0.01" stroke="#000000" stroke-width="2" fill="none"></path></g><g stroke-linecap="round" transform="translate(266.8019711150514 141.5340845019805) rotate(0 18.98986790074673 16.60665295542185)"><path d="M0 0 C0 0, 0 0, 0 0 M0 0 C0 0, 0 0, 0 0 M1.25 10.81 C1.26 10.55, 4.23 6.08, 10.51 0.48 M0.57 12.39 C2.71 9.32, 4.74 7.09, 10.37 -0.35 M0.42 25.44 C5.72 18.75, 11.19 9.46, 19.83 0.34 M1.14 23.43 C4.95 19.43, 9.54 12.55, 20.7 -0.6 M0.26 34.05 C9.89 27.28, 15.04 20.15, 33.66 -1.08 M1.22 34.97 C9.58 25.04, 19.23 15.4, 32.46 -0.83 M13.97 34.53 C22.31 25.64, 30.55 12.45, 40.4 0.35 M13.01 33.97 C21.2 24.94, 30.09 13.96, 40.64 1.88 M22.5 34.96 C26.31 31.37, 31.36 24.97, 40.07 15.04 M23.72 34.57 C31.03 25.69, 37.85 17.78, 41.32 14.99 M34.45 34.77 C34.68 33.17, 38.54 30.87, 41.5 25.58 M33.76 34.82 C36.93 31.22, 39.13 27.44, 41.05 26.6 M0.16 33.35 C0.16 33.35, 0.16 33.35, 0.16 33.35 M0.16 33.35 C0.16 33.35, 0.16 33.35, 0.16 33.35 M11.92 33.13 C9.91 30.81, 5.39 25.9, -0.12 23.21 M12.36 33.55 C9.44 30.85, 5.03 27.53, 0.17 22.3 M25.6 33.19 C15.01 26.75, 8.92 19.71, 0.76 12.16 M23.96 32.52 C17.93 27.83, 10.04 20.52, -0.29 11.79 M34.88 34.33 C29.04 26.11, 19.33 19.42, 1.03 3.45 M37.19 32.85 C21.26 21.28, 9.19 9.26, -0.23 1.03 M42.69 27.72 C27.08 15.16, 10.88 0.83, 5.41 -3.8 M42.3 27.16 C34.1 19.87, 25.44 12.45, 4.01 -4.63 M42.02 15.21 C32.25 10.51, 23.72 1.31, 16.23 -3.66 M41.31 16.33 C33.45 7.88, 23.42 1.27, 15.76 -4.41 M42.69 5.87 C37.12 4.27, 32.15 0.11, 30.32 -7.13 M42.72 7.28 C38.98 4.06, 34.91 -0.53, 28.91 -5" stroke="#ffff" stroke-width="1" fill="none"></path><path d="M-1.43 0.17 C13.13 -0.04, 23.64 -1.58, 36.12 -0.6 M-0.48 -0.44 C7.34 -0.15, 15.6 -0.22, 37.9 -0.53 M37.11 -0.05 C36.34 10.52, 38.4 21.18, 38.99 31.52 M38.32 -0.5 C37.98 9.36, 38.72 17.17, 38.59 33.49 M37.36 34.18 C23.89 35.08, 11.64 33.91, 0.63 34.06 M37.49 32.68 C24.68 33.47, 11.39 32.61, 0.24 33.65 M-0.99 34.51 C0.07 26.66, -1.4 18.82, -1.6 1.18 M-0.69 32.29 C1.17 19.86, 0.38 8.63, 0.73 0.57" stroke="#000000" stroke-width="2" fill="none"></path></g><g stroke-linecap="round" transform="translate(310.8851488361847 142.75892250607012) rotate(0 18.98986790074673 16.60665295542185)"><path d="M0 0 C0 0, 0 0, 0 0 M0 0 C0 0, 0 0, 0 0 M-1.34 13.55 C1.03 9.75, 4.28 7.63, 9.6 -0.17 M0.23 12.11 C2.39 9.61, 5.15 5.54, 10.55 -0.13 M-0.4 25.58 C3.5 17.93, 7.91 13.89, 19.69 -2.04 M0.06 24.93 C7.58 14.57, 15.1 5.73, 20.55 0.6 M3.21 35.25 C10.91 25.57, 22.16 12.53, 31.4 -0.76 M1.15 34.69 C12.59 23.09, 22.29 10.95, 32.28 -0.21 M12.72 36.39 C17.23 27.19, 24.1 18.81, 40.91 3.54 M12.47 34.98 C17.94 27.86, 23.74 21.24, 39.89 1.79 M22.1 36 C26.97 29.82, 30.25 26.36, 42.63 12.81 M23.85 33.83 C29.21 27.42, 34.91 22.18, 40.44 14.67 M32.74 35.47 C36.86 32.78, 38.87 28.52, 41.89 25.15 M33.99 34.56 C35.92 31.01, 39.07 28.81, 41.16 26.4 M0.16 33.35 C0.16 33.35, 0.16 33.35, 0.16 33.35 M0.16 33.35 C0.16 33.35, 0.16 33.35, 0.16 33.35 M13.78 34.08 C8.4 28.41, 2.44 25.4, 0.01 21.21 M12.88 33.9 C8.12 30.34, 4.49 26.12, 0.23 23.3 M22.73 33.24 C15.9 25.7, 8.44 18.98, -0.32 10.95 M24.56 33.67 C15.98 25.57, 8.92 19.61, -0.82 12.13 M36.63 32.69 C23.72 23.26, 15.46 16.06, 1.64 3.28 M35.28 32.93 C22.79 20.74, 7.94 8.35, 1.04 1.61 M42.15 28.49 C32.36 19.82, 25.99 14.18, 3.3 -5.89 M42.96 27.39 C29.18 15.38, 13.61 3.57, 5.3 -4.97 M41.93 18.79 C34.64 10.44, 25.13 3.83, 18 -5.7 M42.92 16.14 C34.85 10.89, 26.09 4.23, 16.94 -5.91 M41.85 8.43 C37.27 4.51, 35.81 -2.46, 28.12 -6.65 M42.82 7.47 C38.47 2.66, 34.84 0.17, 29.28 -5.82" stroke="#ffff" stroke-width="1" fill="none"></path><path d="M1.25 -0.4 C7.64 -1.98, 13.66 -0.63, 36.19 -0.65 M-0.66 0.06 C13.12 0.16, 26.96 -0.37, 37.88 0.98 M36.01 0.88 C37.94 11.61, 38.85 17.74, 37.03 32.34 M38.12 0.97 C38.98 9.53, 38.7 18.55, 38.23 32.74 M36.22 34.9 C23.11 33.91, 12.25 34.24, 1 34.84 M37.97 33.79 C29.79 32.73, 21.86 33.45, -0.66 34.01 M0.33 34.44 C-0.97 22.53, -1.43 10.7, 1.6 -1.19 M0.97 32.48 C0.41 26.65, 0.96 19.33, -0.81 0.83" stroke="#000000" stroke-width="2" fill="none"></path></g><g stroke-linecap="round" transform="translate(356.36687971005085 143.4277714895079) rotate(0 18.98986790074673 16.60665295542185)"><path d="M0 0 C0 0, 0 0, 0 0 M0 0 C0 0, 0 0, 0 0 M-1.06 12.17 C2.47 9.76, 3.89 6.42, 9.9 0.85 M-0.21 12.73 C3.47 7.57, 7.26 3.63, 9.96 0.03 M-1.03 23.3 C6.64 15.45, 14.22 4.19, 22.7 1.68 M-0.01 23.41 C4.68 17.7, 9.47 13.23, 21.31 -0.8 M1.44 36.08 C11.42 24.11, 17.36 14.99, 32.47 -1.08 M2.49 34.61 C12.6 22.21, 22.55 11.18, 31.05 0.71 M11.41 34.18 C20.52 22.89, 29.42 16.42, 38.64 3.46 M12.39 34.31 C19.13 26.46, 25.13 18.61, 39.77 1.89 M23 34.37 C28.12 28.76, 36.37 19.99, 41.16 15.66 M23.63 34.02 C28.79 29.32, 33.29 22.82, 40.91 14.93 M34.6 35.47 C36.69 31.13, 39.4 28.01, 41.52 26.53 M33.32 34.08 C36.35 31.93, 39.03 28.78, 40.47 25.72 M0.16 33.35 C0.16 33.35, 0.16 33.35, 0.16 33.35 M0.16 33.35 C0.16 33.35, 0.16 33.35, 0.16 33.35 M13.15 32.56 C8.3 30.68, 4.87 25.59, 0.45 23.03 M12.01 33.65 C8.04 29.31, 3.97 26.73, 0.43 23.26 M24.21 32.78 C17.69 26.76, 9.24 19.14, 0.3 11.53 M23.42 32.23 C17.9 27.81, 11.48 23.02, 0.13 11.39 M34.5 32.58 C23.84 23.28, 11.09 11.5, 1.72 3.28 M36.96 32.85 C25.8 23.38, 16.56 14.82, -0.68 1.66 M40.97 27.21 C31.56 19.09, 17.85 6.92, 6 -5.19 M43.25 27.76 C31.75 19.6, 23.26 10.77, 4.82 -5.35 M43.01 17.96 C36.44 14.12, 32.73 7.31, 16.65 -7.25 M42.41 17.8 C35.15 12.36, 30.19 5.53, 16.68 -5.52 M41.68 8.45 C41.26 2.42, 35.57 -0.12, 28.52 -6 M42.66 6.28 C38.5 3.4, 34.1 -1.57, 29.13 -5.78" stroke="#ffff" stroke-width="1" fill="none"></path><path d="M-0.12 -1.95 C9.85 -0.52, 21.63 -0.58, 39.1 -0.97 M-0.4 -0.01 C9.66 -0.56, 19.38 0.95, 37.91 -0.43 M38.08 1.9 C38.66 8.18, 36.7 18.87, 37.48 33.9 M38.87 0.39 C38.63 8.58, 38.27 16.15, 38.45 32.9 M36.29 33.73 C25.38 34.38, 12.51 35.16, -1.69 32.23 M37.97 32.93 C28.83 33.87, 18.56 34.23, 0.57 32.72 M-1.13 34.38 C-1.65 22.27, 1.54 7.77, -1.65 -1.37 M0.18 33.88 C0.41 26.87, -1.13 20.22, -0.26 0.06" stroke="#000000" stroke-width="2" fill="none"></path></g><g stroke-linecap="round" transform="translate(400.51091261703914 144.09662047294933) rotate(0 18.98986790074673 16.60665295542185)"><path d="M0 0 C0 0, 0 0, 0 0 M0 0 C0 0, 0 0, 0 0 M0.02 12.55 C3.33 7.14, 7.77 3.39, 11.33 0.16 M-0.12 11.73 C3.35 8.13, 6 4.55, 11.17 -0.3 M-1.16 24.49 C6.73 13.13, 17.61 7.8, 19.96 -0.49 M-0.29 23.55 C7.7 15.59, 16.55 4.9, 20.98 0.68 M3.48 33.64 C11.28 22.21, 22.36 10.38, 32.6 -1.22 M2.28 33.89 C11.11 23.83, 19.16 14.07, 31.87 0.09 M12.19 32.81 C23.87 23.37, 32.62 10.62, 39.34 2.37 M12.43 34.33 C21.25 23.29, 30.72 12.36, 40.76 1.69 M22.35 35.42 C31.52 25.6, 36.65 20.86, 40.75 15.92 M23.6 35.37 C26.64 30.49, 31.14 26.1, 40.92 13.38 M34.29 33.88 C37.39 30.17, 39.83 28.33, 41.44 26.98 M33.83 34.9 C36.22 32.19, 37.76 28.94, 41.31 25.84 M0.16 33.35 C0.16 33.35, 0.16 33.35, 0.16 33.35 M0.16 33.35 C0.16 33.35, 0.16 33.35, 0.16 33.35 M11.96 33.7 C7.75 27.94, 3.92 26.05, 0.79 24.08 M12.25 32.79 C7.69 29.82, 3.24 25.75, 0.17 22.12 M24.91 33.16 C16.4 25.44, 9.58 19.55, -1.03 12.73 M23.86 32.79 C14.84 25.39, 7.13 17.12, 0.78 12.26 M37.25 34.94 C27.76 25.68, 17.45 16.64, -0.14 -0.54 M35.99 32.53 C26.27 23.7, 13.79 14.39, 0.13 1.39 M43.14 29 C28.18 15.49, 17.82 4.83, 3.73 -3.89 M41.75 28.17 C32.08 18.67, 20.98 9.04, 3.69 -5.39 M41.89 18.65 C33.5 7.98, 22.07 -2.33, 15.37 -4.02 M41.42 17.9 C36.93 11.71, 31.03 7.21, 16.01 -5.95 M44.66 5.33 C37.13 1.22, 32.14 -2.83, 29.25 -5.8 M43.25 7.47 C38.59 2.14, 33.37 -2.23, 27.74 -6.02" stroke="#ffff" stroke-width="1" fill="none"></path><path d="M-1.86 -0.6 C8.84 -0.28, 22.38 -0.6, 37.11 -1.33 M-0.08 -0.53 C11.54 0.98, 23.2 -0.43, 37.95 -0.98 M38.99 -1.69 C37.05 10.55, 37.5 23.54, 36.98 33.5 M38.59 0.27 C38.52 12.7, 38.74 26.05, 38.46 32.33 M38.61 34.06 C24.39 34.94, 7.1 32.33, -1.06 33.2 M38.22 33.65 C23.74 33.9, 11.38 32.61, 0.65 33.38 M-1.6 34.4 C1.79 20.02, -1.46 7.83, -1.84 1.94 M0.73 33.78 C-0.87 26.52, -0.32 18.22, 0.95 -0.21" stroke="#000000" stroke-width="2" fill="none"></path></g><g stroke-linecap="round" transform="translate(538.3546583913685 144.20948043573708) rotate(0 18.98986790074673 16.60665295542185)"><path d="M1.97 1.08 L39.17 -0.82 L37.68 33.82 L-0.14 31.33" stroke="none" stroke-width="0" fill="#ffff"></path><path d="M-0.4 -0.15 C10.34 0.53, 25.64 -1.74, 39.31 -1.22 M-0.27 0.09 C11.61 -0.68, 23.4 -0.8, 37.75 0.21 M37.81 -0.62 C39.1 10.46, 36.86 17.49, 39.48 33.27 M37.45 0.63 C38.57 12.64, 38.24 25.98, 38.75 33.45 M39.72 34.46 C28.43 35.5, 19.25 34.84, 0.59 34.34 M37.19 33.64 C24.64 33.64, 10.23 32.38, -0.88 34.1 M-1.81 31.94 C1.17 26.27, -0.5 17.02, -0.19 -1.89 M-0.88 32.39 C1.22 21.95, 0.01 11.18, -0.17 -0.05" stroke="#000000" stroke-width="2" fill="none"></path></g><g stroke-linecap="round" transform="translate(581.768987129064 144.76546945638756) rotate(0 18.98986790074673 16.60665295542185)"><path d="M1.19 -0.82 L37.68 0.61 L37.84 31.33 L0.41 33.6" stroke="none" stroke-width="0" fill="#ffff"></path><path d="M-1.77 0.35 C11.04 -1.89, 20.59 -1.19, 38.23 0.8 M-0.25 -0.66 C11.25 -0.82, 22.94 0.17, 37.54 0.73 M38.86 1.95 C36.59 10.48, 39.45 20.08, 39.74 31.78 M38.81 -0.24 C38.3 12.37, 38.57 24.53, 37.19 34.09 M36.83 35.15 C21.2 34.73, 8.86 34.58, 1.4 33.4 M38.69 33.83 C28.89 32.73, 18.2 34.27, -0.67 32.47 M0.92 34 C-0.45 19.63, 0.11 5.66, 0.92 -1.67 M0.94 33.44 C0.03 27.13, 0.12 19.09, 0.99 0.54" stroke="#000000" stroke-width="2" fill="none"></path></g><g stroke-linecap="round" transform="translate(627.2507180029297 145.43431843982626) rotate(0 18.98986790074673 16.60665295542185)"><path d="M-0.3 0.61 L37.84 -1.89 L38.39 33.6 L0.83 34.92" stroke="none" stroke-width="0" fill="#ffff"></path><path d="M1.41 -1.91 C12.44 -1.28, 22.46 0.73, 38.08 -0.53 M-0.33 -0.79 C11.48 0.46, 23 0.98, 37.99 -0.09 M36.62 0.47 C39.62 9, 39.88 16.44, 39.3 32.16 M38.48 0.22 C39.02 12.3, 37.47 25, 38.89 34.08 M36.05 34.5 C24.81 34.71, 11.87 33.77, -1.02 31.64 M38.34 32.57 C24.1 34.34, 11.31 32.71, 0.86 32.31 M-0.75 32.47 C-0.34 23.47, 0.77 15.83, -1.76 -1.77 M-0.27 34.16 C-0.49 25.92, 0.67 19.28, 0.6 -0.41" stroke="#000000" stroke-width="2" fill="none"></path></g><g transform="translate(474.5573021774376 146.92855239320443) rotate(0 12 18)"><text x="12" y="26" font-family="Virgil, Segoe UI Emoji" font-size="28px" fill="#000000" text-anchor="middle" style="white-space: pre;" direction="ltr">...</text></g><g transform="translate(37.798915991635795 144.76625036008227) rotate(0 12 18)"><text x="12" y="26" font-family="Virgil, Segoe UI Emoji" font-size="28px" fill="#000000" text-anchor="middle" style="white-space: pre;" direction="ltr">...</text></g><g transform="translate(699.2905606130116 148.7793442607176) rotate(0 12 18)"><text x="12" y="26" font-family="Virgil, Segoe UI Emoji" font-size="28px" fill="#000000" text-anchor="middle" style="white-space: pre;" direction="ltr">...</text></g><g stroke-linecap="round"><g transform="translate(153.4705084247139 222.96265886961146) rotate(0 -30.78690187355903 -21.966715479886034)"><path d="M-1.16 0.69 C-9.52 -0.21, -41.12 1.95, -51.15 -5.6 C-61.18 -13.15, -59.57 -38.05, -61.34 -44.62 M0.43 0.01 C-7.91 -1.25, -41.16 -0.3, -51.56 -7.5 C-61.97 -14.7, -60.32 -37.12, -62.01 -43.21" stroke="#000000" stroke-width="2" fill="none"></path></g><g transform="translate(153.4705084247139 222.96265886961146) rotate(0 -30.78690187355903 -21.966715479886034)"><path d="M-63.86 -41.22 L-55.85 -31.38 L-67.42 -28.48 L-64 -42.89" stroke="none" stroke-width="0" fill="#000000" fill-rule="evenodd"></path><path d="M-61.14 -41.93 C-59.78 -40.1, -58.36 -37.85, -54.45 -30.29 M-61.62 -43.3 C-58.8 -37.85, -56.86 -33.89, -53.46 -30.21 M-54.36 -29.68 C-56.56 -29.09, -59.36 -29.36, -65.71 -28.58 M-54.65 -30.69 C-59.16 -30.38, -63.45 -29.06, -66.79 -29.14 M-68.23 -28.53 C-64.26 -33.42, -64.53 -37.2, -61.77 -42.41 M-66.18 -29.14 C-64.9 -33.11, -63.82 -36.36, -61.98 -43.1 M-62.01 -43.21 C-62.01 -43.21, -62.01 -43.21, -62.01 -43.21 M-62.01 -43.21 C-62.01 -43.21, -62.01 -43.21, -62.01 -43.21" stroke="#000000" stroke-width="2" fill="none"></path></g></g><mask></mask><g stroke-linecap="round"><g transform="translate(204.9718801495319 224.96920581992845) rotate(0 26.49007252940669 -23.478851172319537)"><path d="M-0.06 -0.3 C6.36 -1.9, 30.45 -1.32, 39.55 -9.04 C48.65 -16.77, 52.14 -40.74, 54.53 -46.66 M-1.55 -1.51 C5.17 -3.04, 32.64 -0.63, 41.95 -8.04 C51.26 -15.45, 52.24 -39.53, 54.3 -45.95" stroke="#000000" stroke-width="2" fill="none"></path></g><g transform="translate(204.9718801495319 224.96920581992845) rotate(0 26.49007252940669 -23.478851172319537)"><path d="M54.81 -45.55 L58.96 -30.25 L46.53 -31.99 L53.19 -45.02" stroke="none" stroke-width="0" fill="#000000" fill-rule="evenodd"></path><path d="M53.92 -46.68 C54.54 -39.04, 55.78 -34.22, 59.2 -32.24 M54.7 -46.38 C54.9 -42.17, 56.87 -37.94, 58.64 -32.11 M58.18 -30.18 C52.43 -31.29, 48.56 -33.39, 44.53 -34.1 M58.24 -31.33 C55.74 -31.5, 52.12 -31.96, 46.09 -33.27 M44.77 -35.16 C48.93 -37.82, 48.69 -39.81, 54.67 -47.45 M45.29 -34.35 C48.65 -37.24, 51.77 -42.15, 53.65 -46.65 M54.3 -45.95 C54.3 -45.95, 54.3 -45.95, 54.3 -45.95 M54.3 -45.95 C54.3 -45.95, 54.3 -45.95, 54.3 -45.95" stroke="#000000" stroke-width="2" fill="none"></path></g></g><mask></mask><g stroke-linecap="round"><g transform="translate(330.05666826254355 222.8237192083866) rotate(0 -29.594880561022364 -23.106962381448966)"><path d="M0.92 -0.21 C-7.41 -1.2, -40.89 1.52, -50.96 -6.11 C-61.03 -13.75, -58.17 -39.47, -59.52 -46 M-0.05 -1.37 C-8.49 -2.67, -42.14 -0.54, -52.15 -7.78 C-62.17 -15.02, -59.07 -38.77, -60.11 -44.8" stroke="#000000" stroke-width="2" fill="none"></path></g><g transform="translate(330.05666826254355 222.8237192083866) rotate(0 -29.594880561022364 -23.106962381448966)"><path d="M-59.92 -43.1 L-52.68 -32 L-66.56 -32.18 L-59.84 -46.6" stroke="none" stroke-width="0" fill="#000000" fill-rule="evenodd"></path><path d="M-60.37 -45.39 C-57.57 -41.52, -57.46 -38.05, -52.77 -30.4 M-59.38 -44.1 C-58.93 -40.62, -56.29 -37.51, -53.32 -30.79 M-52.21 -32.18 C-56.4 -31.95, -59.39 -32.16, -67.08 -31.82 M-53.99 -31.94 C-57.19 -31.61, -61.88 -30.6, -65.76 -30.84 M-64.97 -32.23 C-64.55 -36.64, -60.91 -42.67, -61.07 -45.39 M-66.3 -31.3 C-63.83 -36.88, -61.58 -41.47, -60.59 -45.21 M-60.11 -44.8 C-60.11 -44.8, -60.11 -44.8, -60.11 -44.8 M-60.11 -44.8 C-60.11 -44.8, -60.11 -44.8, -60.11 -44.8" stroke="#000000" stroke-width="2" fill="none"></path></g></g><mask></mask><g stroke-linecap="round"><g transform="translate(372.4578332429719 222.66845030840705) rotate(0 32.47574828192546 -22.566747606749686)"><path d="M-0.64 -0.21 C7.71 -1.34, 40.3 -0.28, 50.92 -7.73 C61.54 -15.18, 60.77 -39, 63.1 -44.92 M1.23 -1.37 C9.38 -2.27, 39.47 0.5, 50.2 -6.58 C60.92 -13.66, 63.01 -37.41, 65.59 -43.85" stroke="#000000" stroke-width="2" fill="none"></path></g><g transform="translate(372.4578332429719 222.66845030840705) rotate(0 32.47574828192546 -22.566747606749686)"><path d="M65.12 -45.45 L70.09 -29.97 L56.48 -32.29 L64.35 -45.07" stroke="none" stroke-width="0" fill="#000000" fill-rule="evenodd"></path><path d="M65.32 -43.31 C65.58 -39.34, 66.94 -31.66, 69.86 -29.55 M64.99 -43.8 C66.38 -40.43, 66.6 -35.6, 68.13 -29.03 M68.61 -30.14 C64.7 -29.7, 58.65 -31.17, 56.38 -32.14 M68.94 -29.07 C63.47 -30.62, 58.93 -31.37, 56.63 -32.03 M56.3 -33.59 C59.32 -35.05, 60.22 -37.58, 65.85 -42.47 M56.31 -32.53 C58.49 -35.57, 61.43 -39.18, 65.44 -44.52 M65.59 -43.85 C65.59 -43.85, 65.59 -43.85, 65.59 -43.85 M65.59 -43.85 C65.59 -43.85, 65.59 -43.85, 65.59 -43.85" stroke="#000000" stroke-width="2" fill="none"></path></g></g><mask></mask><g transform="translate(156.71792081196372 201.93647106834078) rotate(0 21.5 18)"><text x="21.5" y="26" font-family="Virgil, Segoe UI Emoji" font-size="28px" fill="#000000" text-anchor="middle" style="white-space: pre;" direction="ltr">ptr</text></g><g transform="translate(332.28095853927925 200.28071598553652) rotate(0 18.5 18)"><text x="18.5" y="26" font-family="Virgil, Segoe UI Emoji" font-size="28px" fill="#000000" text-anchor="middle" style="white-space: pre;" direction="ltr">len</text></g><g stroke-linecap="round" transform="translate(10 64.48492569066502) rotate(0 378.92938222326325 99.66500440318146)"><path d="M32 0 M32 0 C220.01 -3.43, 407.77 -2.14, 725.86 0 M725.86 0 C746.2 -1.24, 757.93 10.51, 757.86 32 M757.86 32 C756.87 76.62, 759.3 121.89, 757.86 167.33 M757.86 167.33 C758.95 189.5, 747.08 197.48, 725.86 199.33 M725.86 199.33 C535.99 197.42, 345.34 196.77, 32 199.33 M32 199.33 C10.15 200.02, -0.15 187.77, 0 167.33 M0 167.33 C1.87 122.87, 2.11 79.67, 0 32 M0 32 C0.81 11.62, 9.34 -1.44, 32 0" stroke="#1864ab" stroke-width="2.5" fill="none" stroke-dasharray="8 10"></path></g><g transform="translate(40.89888664610908 10) rotate(0 46 18)"><text x="46" y="26" font-family="Virgil, Segoe UI Emoji" font-size="28px" fill="#1864ab" text-anchor="middle" style="white-space: pre;" direction="ltr">memory</text></g><g stroke-linecap="round"><g transform="translate(174.92787530678743 135.3128476015554) rotate(0 182.16498350397455 -23.845647850385376)"><path d="M-0.19 0.26 C11.4 -7.56, 20.3 -39.92, 68.88 -47.69 C117.47 -55.47, 241.93 -55.17, 291.33 -46.39 C340.73 -37.6, 353.32 -3.57, 365.29 5.02 M-1.75 -0.65 C9.75 -8.3, 18.75 -39.37, 67.98 -46.76 C117.21 -54.14, 243.97 -53.71, 293.65 -44.98 C343.34 -36.26, 354.22 -2.76, 366.08 5.57" stroke="#1864ab" stroke-width="2" fill="none"></path></g><g transform="translate(174.92787530678743 135.3128476015554) rotate(0 182.16498350397455 -23.845647850385376)"><path d="M364.61 7.45 L350.94 0.17 L362.62 -8.59 L364.15 6.19" stroke="none" stroke-width="0" fill="#1864ab" fill-rule="evenodd"></path><path d="M366.4 5.67 C361.31 2.73, 359.56 3.91, 351 -1.75 M365.84 5.89 C362.83 3.71, 359.45 2.54, 351.73 0.21 M351.1 0.07 C355.91 -4.22, 359.26 -7.55, 360.64 -9.5 M351.69 -0.46 C354.4 -2.87, 356.66 -4.32, 361.75 -8.79 M360.31 -8.12 C363.02 -4.1, 363.95 0.71, 367.46 5.76 M362.29 -9.23 C362.05 -6.16, 363.75 -2.45, 366.59 5.16 M366.08 5.57 C366.08 5.57, 366.08 5.57, 366.08 5.57 M366.08 5.57 C366.08 5.57, 366.08 5.57, 366.08 5.57" stroke="#1864ab" stroke-width="2" fill="none"></path></g></g><mask></mask><g stroke-linecap="round"><g transform="translate(602.386027711761 222.51278407336395) rotate(0 -31.46161700171683 -20.05953500579767)"><path d="M-0.17 0.62 C-9.07 0.12, -42.84 4.36, -53.14 -2.75 C-63.44 -9.86, -60.66 -35.72, -61.96 -42.05 M-1.71 -0.1 C-10.24 -0.45, -40.57 5.45, -50.75 -1.4 C-60.92 -8.24, -61.19 -34.85, -62.76 -41.18" stroke="#000000" stroke-width="2" fill="none"></path></g><g transform="translate(602.386027711761 222.51278407336395) rotate(0 -31.46161700171683 -20.05953500579767)"><path d="M-62.51 -41.89 L-54.82 -29.69 L-68.72 -27.37 L-63.79 -39.76" stroke="none" stroke-width="0" fill="#000000" fill-rule="evenodd"></path><path d="M-61.99 -41.95 C-60.57 -37.2, -58.6 -31.86, -54.08 -29.81 M-63.18 -40.89 C-59.88 -37.64, -58.48 -34.27, -54.28 -28.75 M-53.44 -27.95 C-57.04 -27.89, -61.69 -27.89, -68.1 -28.08 M-54.73 -29.11 C-58.71 -27.88, -63.25 -27.44, -67.66 -27.01 M-65.72 -27.52 C-65.29 -31.36, -65.66 -33.97, -62.05 -42.32 M-66.81 -26.51 C-65.99 -33.16, -63.79 -38.85, -62.73 -40.47 M-62.76 -41.18 C-62.76 -41.18, -62.76 -41.18, -62.76 -41.18 M-62.76 -41.18 C-62.76 -41.18, -62.76 -41.18, -62.76 -41.18" stroke="#000000" stroke-width="2" fill="none"></path></g></g><mask></mask><g transform="translate(603.386027711761 202.73767296362848) rotate(0 35 18)"><text x="35" y="26" font-family="Virgil, Segoe UI Emoji" font-size="28px" fill="#000000" text-anchor="middle" style="white-space: pre;" direction="ltr">data</text></g><g stroke-linecap="round"><g transform="translate(678.5635584809888 222.7465495020897) rotate(0 25.420597548856904 -0.864169439426405)"><path d="M-0.36 -0.42 C8.34 -0.82, 42.95 -1.35, 51.2 -1.31" stroke="#000000" stroke-width="2.5" fill="none" stroke-dasharray="8 10"></path></g><g transform="translate(678.5635584809888 222.7465495020897) rotate(0 25.420597548856904 -0.864169439426405)"><path d="M49.84 0.56 L36.26 6.35 L38.66 -7.36 L50.87 -1.91" stroke="none" stroke-width="0" fill="#000000" fill-rule="evenodd"></path><path d="M50.68 -0.09 C47.54 -1.36, 46.08 2.25, 38.08 3.65 M36.95 5.73 C36.38 3.39, 36.56 -0.32, 38.69 -8.63 M38.71 -6.96 C42.99 -6.98, 44.82 -3.67, 51.22 -1.37 M51.2 -1.31 C51.2 -1.31, 51.2 -1.31, 51.2 -1.31" stroke="#000000" stroke-width="2.5" fill="none"></path></g></g><mask></mask></svg>