<svg version="1.1" xmlns="http://www.w3.org/2000/svg" viewBox="0 0 440.6121338592021 293.8869708850621" width="440.6121338592021" height="293.8869708850621">
  <!-- svg-source:excalidraw -->
  
  <defs>
    <style class="style-fonts">
      @font-face {
        font-family: "Virgil";
        src: url("https://excalidraw.com/Virgil.woff2");
      }
      @font-face {
        font-family: "Cascadia";
        src: url("https://excalidraw.com/Cascadia.woff2");
      }
    </style>
  </defs>
  <g stroke-linecap="round" transform="translate(10 10) rotate(0 210.30606692960106 136.94348544253106)"><path d="M-0.43 -0.17 C85.47 1.11, 170.91 2.04, 421.64 0.62 M0 -0.08 C102.1 1.89, 205.42 1.93, 420.61 0.16 M420.03 -1.08 C421.9 68.72, 421.83 139.02, 421.34 272.48 M420.03 0.48 C421.8 97.57, 422.04 193.73, 420.65 274.25 M421.02 273.57 C261.67 274.36, 104.77 275.37, 0.38 272.99 M420.12 274.12 C322.34 273.53, 224.61 273.72, 0.22 273.72 M1.17 273.08 C0.52 190.65, -0.25 111.22, 0.49 -0.51 M0.37 273.58 C-1.44 181.5, -1.69 87.79, -0.12 0.52" stroke="#364fc7" stroke-width="1" fill="none"></path></g><g stroke-linecap="round" transform="translate(49.76290842697949 136.0292089136965) rotate(0 174.5 60.5)"><path d="M-0.21 0.27 C136.06 1.41, 273.74 2.17, 349.75 -0.73 M-0.1 -0.46 C102.56 0.59, 204.58 0, 349.2 -0.32 M347.61 0.43 C348.47 42.06, 350.43 84.38, 347.19 122.09 M349.62 0.6 C349.34 41.35, 348.2 80.92, 349.47 121.76 M348.62 119.78 C251.36 121.93, 155.01 122.35, -1.1 120.13 M349.28 120.71 C256.12 119.01, 163.81 119.18, -0.21 120.99 M-1.04 122.17 C-1.97 82.68, 1.18 44.62, -0.66 0.77 M-0.39 121.75 C-0.79 73.62, -2.14 25.22, 0.67 0.61" stroke="#5c940d" stroke-width="1" fill="none"></path></g><g transform="translate(77.2629084269795 170.5292089136965) rotate(0 147 26)"><text x="147" y="19" font-family="Virgil, Segoe UI Emoji" font-size="20px" fill="#5c940d" text-anchor="middle" style="white-space: pre;" direction="ltr">Guest</text><text x="147" y="45" font-family="Virgil, Segoe UI Emoji" font-size="20px" fill="#5c940d" text-anchor="middle" style="white-space: pre;" direction="ltr">(e.g. Security Critical Service)</text></g><g transform="translate(87.35603774835931 53.040986655271354) rotate(0 138 26)"><text x="138" y="19" font-family="Virgil, Segoe UI Emoji" font-size="20px" fill="#364fc7" text-anchor="middle" style="white-space: pre;" direction="ltr">Host</text><text x="138" y="45" font-family="Virgil, Segoe UI Emoji" font-size="20px" fill="#364fc7" text-anchor="middle" style="white-space: pre;" direction="ltr">(e.g. Cloud Service Provider)</text></g></svg>