<svg version="1.1" xmlns="http://www.w3.org/2000/svg" viewBox="0 0 941.4491897642332 284.2931771975776" width="941.4491897642332" height="284.2931771975776">
  <!-- svg-source:excalidraw -->
  
  <defs>
    <style class="style-fonts">
      @font-face {
        font-family: "Virgil";
        src: url("https://excalidraw.com/Virgil.woff2");
      }
      @font-face {
        font-family: "Cascadia";
        src: url("https://excalidraw.com/Cascadia.woff2");
      }
    </style>
  </defs>
  <g stroke-linecap="round" transform="translate(127.14787913123371 11.892500461760278) rotate(0 146.14757164454966 129.7481401769178)"><path d="M-1.16 -0.59 C100.57 -1.58, 199.44 -0.62, 291.81 0.58 M-0.27 0.74 C74.88 0.95, 150.05 1.95, 292.53 -0.62 M293.61 1.56 C293.33 77, 293.03 154.6, 293.85 260.53 M291.88 -0.52 C293.21 84.29, 292.98 168.89, 291.63 259.25 M291.93 259.66 C225.53 257.42, 157.53 258.68, 0.36 259.09 M291.75 259.29 C223.51 258.49, 156.26 257.97, -0.36 259.47 M-1.51 258.29 C2.83 191.35, 1.02 119.56, 1.13 1.52 M0.12 258.96 C-0.64 181.3, 0.42 103.03, 0.73 -0.79" stroke="#364fc7" stroke-width="1" fill="none"></path></g><g stroke-linecap="round" transform="translate(166.9107875582132 119.93334621142367) rotate(0 106 60.5)"><path d="M-0.78 0.84 C65 3.17, 131.77 1.81, 211.97 0.51 M-0.38 -0.74 C80.92 -0.9, 163.3 -0.58, 212.22 -0.6 M213.03 -0.45 C211.66 48.99, 212.78 96.14, 210.75 121.41 M212.89 -0.79 C210.81 27.55, 211.33 53.3, 212.28 120.49 M211.11 121.34 C135.71 122.91, 58.34 121.73, -0.17 120.22 M212.09 121.37 C129.14 121.92, 47.59 121.14, 0.47 121.03 M1.23 122.2 C-2.65 84.54, -1.12 49.9, -1.2 1.61 M0.5 121.12 C-0.25 81.82, 0.28 41.88, -0.81 -0.39" stroke="#5c940d" stroke-width="1" fill="none"></path></g><g transform="translate(242.4107875582132 167.43334621142367) rotate(0 30.5 13)"><text x="30.5" y="19" font-family="Virgil, Segoe UI Emoji" font-size="20px" fill="#5c940d" text-anchor="middle" style="white-space: pre;" direction="ltr">Guest</text></g><g transform="translate(246.8512400125253 45.33969342954765) rotate(0 22.5 13)"><text x="22.5" y="19" font-family="Virgil, Segoe UI Emoji" font-size="20px" fill="#364fc7" text-anchor="middle" style="white-space: pre;" direction="ltr">Host</text></g><g stroke-linecap="round"><g transform="translate(233.27820111687993 55.12494476801305) rotate(0 -73.59401881086899 68.2895099326671)"><path d="M-0.66 -0.4 C-22.36 2.64, -107.83 -3.85, -130.93 17.05 C-154.03 37.94, -149.69 105.26, -139.27 124.98 C-128.84 144.7, -80.02 133.77, -68.37 135.37 M1.19 -1.65 C-20.51 1.65, -107.81 -2.93, -131.36 18.36 C-154.91 39.65, -150.15 106.37, -140.12 126.08 C-130.08 145.8, -82.72 135.23, -71.16 136.67" stroke="#000000" stroke-width="1" fill="none"></path></g><g transform="translate(233.27820111687993 55.12494476801305) rotate(0 -73.59401881086899 68.2895099326671)"><path d="M-71.87 135.95 L-84.91 142.11 L-83.28 130.45 L-71.07 136.15" stroke="none" stroke-width="0" fill="#000000" fill-rule="evenodd"></path><path d="M-71.66 137.91 C-74.89 138.04, -78.02 141.36, -83.99 143.84 M-71.31 136.73 C-74.54 137.91, -78.57 140.11, -85.14 143.65 M-83.49 143.64 C-84.56 140.91, -84.78 138.49, -85.59 130.1 M-84.27 143.67 C-85.16 141.2, -85.23 138.52, -84.87 131.33 M-84.67 131.14 C-79.59 133.47, -75.43 134.12, -69.68 136.24 M-85.71 130.87 C-79.96 133.31, -74.65 135.27, -71.27 137.15 M-71.16 136.67 C-71.16 136.67, -71.16 136.67, -71.16 136.67 M-71.16 136.67 C-71.16 136.67, -71.16 136.67, -71.16 136.67" stroke="#000000" stroke-width="1" fill="none"></path></g></g><mask></mask><g transform="translate(10 88.77529279417456) rotate(0 35 26)"><text x="35" y="19" font-family="Virgil, Segoe UI Emoji" font-size="20px" fill="#000000" text-anchor="middle" style="white-space: pre;" direction="ltr">Can</text><text x="35" y="45" font-family="Virgil, Segoe UI Emoji" font-size="20px" fill="#000000" text-anchor="middle" style="white-space: pre;" direction="ltr">attack</text></g><g stroke-linecap="round" transform="translate(468.52371336815975 10) rotate(0 146.14757164454966 132.1465885987888)"><path d="M-0.15 -0.81 C80.86 2.04, 160.92 1.63, 291.93 -1.01 M0.45 -0.69 C71.79 -0.7, 144.89 -1.88, 291.72 0.49 M293.25 -0.92 C290.18 54.54, 290.72 108.35, 292.22 264.45 M292.36 0.5 C290 89.72, 291.16 178.32, 292.21 263.78 M293.69 264.99 C227.12 261.23, 163.43 263.03, 0.73 264.16 M292.33 263.8 C192.39 264.63, 93.42 263.49, 0.5 264.59 M0.7 265.12 C0.51 202.89, 1.62 139.75, 0.49 -0.69 M0.79 263.74 C-2.26 196.33, -1.52 128.55, 0.24 0.71" stroke="#364fc7" stroke-width="1" fill="none"></path></g><g stroke-linecap="round" transform="translate(509.48584600607444 115.64239732779231) rotate(0 106 60.5)"><path d="M-0.96 0.56 C77.18 0.37, 153.49 -0.25, 210.81 -0.93 M-0.81 -0.63 C83.58 -0.83, 165.06 -1.81, 212.57 -0.85 M210.83 -1.72 C212.97 30.9, 212.94 63.77, 212.2 121.75 M212.64 -0.83 C212.11 27.44, 211.36 53.51, 211.36 120.2 M212.83 120.11 C144.12 122.72, 79.92 123.61, -0.16 121.71 M211.42 120.55 C151.46 121.27, 88.93 121.67, 0.35 120.41 M1.05 121.15 C-0.04 88.53, -1.99 53.57, -0.87 -0.84 M-0.69 120.13 C0.14 75.7, 0.6 30.59, 0.89 -0.4" stroke="#5c940d" stroke-width="1" fill="none"></path></g><g transform="translate(584.9858460060744 163.1423973277923) rotate(0 30.5 13)"><text x="30.5" y="19" font-family="Virgil, Segoe UI Emoji" font-size="20px" fill="#5c940d" text-anchor="middle" style="white-space: pre;" direction="ltr">Guest</text></g><g transform="translate(591.8247468822577 31.454950858431744) rotate(0 22.5 13)"><text x="22.5" y="19" font-family="Virgil, Segoe UI Emoji" font-size="20px" fill="#364fc7" text-anchor="middle" style="white-space: pre;" direction="ltr">Host</text></g><g stroke-linecap="round" transform="translate(488.71295804614977 89.38072331762521) rotate(0 126.51815425369944 82.74647055455227)"><path d="M-0.71 0.14 C95.39 0.23, 189.87 -1.59, 254.24 0.76 M0.25 0.51 C82.43 -0.23, 165.41 -0.71, 253.2 -0.69 M254.08 -0.84 C252.58 39.28, 251.63 79.31, 253.65 166.52 M253.12 0.73 C253.9 40.74, 253.72 80.69, 253.03 165.5 M251.91 166.03 C201.1 166.34, 147.26 166.9, -1.41 165.46 M253.84 166.28 C186.49 165.54, 120.74 166.29, -0.69 165.22 M1.18 166.62 C2.43 126.87, 1.19 85.12, -0.71 -0.75 M-0.75 164.86 C1.22 107.84, -0.4 49.89, -0.27 -0.51" stroke="#862e9c" stroke-width="1" fill="none"></path></g><g transform="translate(489.4982180539249 63.59158436452776) rotate(0 22 13)"><text x="22" y="19" font-family="Virgil, Segoe UI Emoji" font-size="20px" fill="#862e9c" text-anchor="middle" style="white-space: pre;" direction="ltr">TEE</text></g><g stroke-linecap="round"><g transform="translate(638.6159844130924 40.86039387668632) rotate(0 85.98716815428872 70.19848954995342)"><path d="M-0.64 1.08 C25.07 3.11, 127.39 -7.77, 154.31 11.81 C181.23 31.4, 172.41 97.24, 160.89 118.59 C149.36 139.94, 97.92 136.11, 85.16 139.92 M1.23 0.6 C26.74 2.81, 126.15 -6.35, 153.15 12.97 C180.16 32.29, 174.54 95.25, 163.25 116.51 C151.96 137.77, 98.27 136.26, 85.41 140.53" stroke="#000000" stroke-width="1" fill="none"></path></g><g transform="translate(638.6159844130924 40.86039387668632) rotate(0 85.98716815428872 70.19848954995342)"><path d="M86.02 140.58 L96.04 133.81 L99.13 144.7 L85.45 142.12" stroke="none" stroke-width="0" fill="#000000" fill-rule="evenodd"></path><path d="M86.76 140.04 C88.34 136.82, 93.69 135.57, 96.74 131.24 M85.01 140.79 C90.1 137.65, 93.58 134.34, 97.68 132.58 M97.77 133.17 C99.25 136.13, 99.48 141.2, 100.37 144.95 M97.87 132.27 C98.56 136.72, 98.41 139.61, 99.41 145.33 M100.5 145.03 C96.46 143.34, 91.21 142.21, 86.13 139.26 M99.43 145.41 C96.27 143.95, 91.18 142.08, 85.28 140.92 M85.41 140.53 C85.41 140.53, 85.41 140.53, 85.41 140.53 M85.41 140.53 C85.41 140.53, 85.41 140.53, 85.41 140.53" stroke="#000000" stroke-width="1" fill="none"></path></g></g><mask></mask><g stroke-linecap="round"><g transform="translate(834.0895307955851 80.98615384107654) rotate(0 -23.992290050709016 21.44424779731355)"><path d="M0.09 0.96 C-7.91 7.97, -39.03 35.54, -47 42.47 M-1.33 0.42 C-9.59 7.03, -40.74 33.93, -48.07 40.61" stroke="#a61e4d" stroke-width="1" fill="none"></path></g></g><mask></mask><g stroke-linecap="round"><g transform="translate(836.4879792174562 121.75977701288491) rotate(0 -22.69055950854704 -18.879789130439235)"><path d="M0 0.93 C-7.44 -5.42, -37.19 -30.72, -44.83 -37.19 M-1.45 0.37 C-8.97 -6.35, -37.84 -31.96, -45.39 -38.69" stroke="#a61e4d" stroke-width="1" fill="none"></path></g></g><mask></mask><g transform="translate(861.4491897642332 72.97451700510976) rotate(0 35 26)"><text x="35" y="19" font-family="Virgil, Segoe UI Emoji" font-size="20px" fill="#000000" text-anchor="middle" style="white-space: pre;" direction="ltr">Cannot</text><text x="35" y="45" font-family="Virgil, Segoe UI Emoji" font-size="20px" fill="#000000" text-anchor="middle" style="white-space: pre;" direction="ltr">attack</text></g></svg>