<svg version="1.1" xmlns="http://www.w3.org/2000/svg" viewBox="0 0 822.697272985449 580.8827561976373" width="822.697272985449" height="580.8827561976373">
  <!-- svg-source:excalidraw -->
  
  <defs>
    <style class="style-fonts">
      @font-face {
        font-family: "Virgil";
        src: url("https://excalidraw.com/Virgil.woff2");
      }
      @font-face {
        font-family: "Cascadia";
        src: url("https://excalidraw.com/Cascadia.woff2");
      }
    </style>
  </defs>
  <g stroke-linecap="round" transform="translate(490.1959506477094 52.36667586500471) rotate(0 68.5 49.54325402715904)"><path d="M-1.14 1.59 C35.74 0.91, 72.89 1.08, 136.16 -0.69 M0.26 -0.08 C39.26 -1.6, 80.51 -1.84, 137.92 -0.81 M136.65 -1.67 C139.54 34.76, 138.93 73.22, 138.41 99.64 M136.35 -0.78 C136.27 37.02, 136.55 73.11, 137.99 99.79 M137.13 98.91 C96.37 98.14, 54.39 98.55, 0.31 99.26 M137.93 99.59 C107.36 98.9, 79.68 99.85, -0.51 98.35 M0.91 100.12 C0.17 63.87, -0.3 34.2, -1.66 1.84 M0.31 98.49 C-0.76 62.62, -1.17 27.15, -0.17 -0.65" stroke="#364fc7" stroke-width="1" fill="none"></path></g><g transform="translate(534.9194479965843 88.90992989216375) rotate(0 23.5 13)"><text x="23.5" y="19" font-family="Virgil, Segoe UI Emoji" font-size="20px" fill="#364fc7" text-anchor="middle" style="white-space: pre;" direction="ltr">Node</text></g><g stroke-linecap="round" transform="translate(464.65531278653884 34.880048044006344) rotate(0 91.86439648939563 70.16524314041544)"><path d="M-0.79 0.3 C46.78 -0.99, 93.05 -2.15, 183.56 0.12 M-0.7 -0.54 C69.93 -0.64, 139.63 -0.67, 184.43 0.89 M185.39 -1.9 C184.53 54.36, 184.89 109.46, 185.21 139.37 M183.48 -0.03 C182.85 55.04, 183.81 112.78, 183.72 140.78 M184.11 140.69 C145.51 140.93, 108.77 140.34, -1.79 142.27 M182.91 139.34 C118.15 141.21, 51.39 140.51, 0.35 140.65 M0.49 138.35 C-0.61 95.49, -2.29 49.31, 1.32 1.21 M-0.16 140.12 C-1.01 94.05, -0.61 46, -0.56 0.74" stroke="#862e9c" stroke-width="1" fill="none"></path></g><g transform="translate(466.13305726570684 10) rotate(0 22 13)"><text x="22" y="19" font-family="Virgil, Segoe UI Emoji" font-size="20px" fill="#862e9c" text-anchor="middle" style="white-space: pre;" direction="ltr">TEE</text></g><g stroke-linecap="round" transform="translate(209.82751307572585 58.21109708993936) rotate(0 68.5 49.54325402715904)"><path d="M0.59 0.07 C44.97 -0.27, 91.35 -1.62, 136.15 1.24 M-0.1 -0.8 C47.46 1.06, 93.73 1.05, 137.03 -0.94 M138.54 1.55 C137.69 20.29, 136.52 38, 136.71 101.03 M136.54 0.48 C137.94 25.62, 137.22 49.76, 137.22 99.87 M137 100.4 C100.42 96.7, 68.5 99.53, -0.06 100.55 M137.73 99.57 C106.92 99.22, 78.8 97.89, 1 99.2 M-0.03 97.12 C-0.77 63.71, -0.58 31.42, 0.96 -0.04 M-0.7 98.87 C-0.15 69.21, -0.71 38.48, 0.65 0.13" stroke="#364fc7" stroke-width="1" fill="none"></path></g><g transform="translate(254.5510104246016 101.2543511170984) rotate(0 23.5 13)"><text x="23.5" y="19" font-family="Virgil, Segoe UI Emoji" font-size="20px" fill="#364fc7" text-anchor="middle" style="white-space: pre;" direction="ltr">Node</text></g><g stroke-linecap="round" transform="translate(189.5248142314024 38.25712031253761) rotate(0 93.17388124360741 72.129470271733)"><path d="M-1.47 -0.02 C57.64 -1.44, 117.52 1.17, 187.18 1.91 M0.65 -0.28 C37.78 1.2, 75.36 0.56, 185.36 -0.13 M187.17 0.34 C187.11 36.92, 187.16 79.56, 185.41 144.14 M187.34 0.52 C185.97 35.91, 185.9 73.46, 185.9 145.23 M184.71 143.15 C149.28 147.21, 109.4 146.94, -1.7 145.02 M185.74 145.17 C141.87 144.76, 96.94 145.28, 0.43 144.43 M-0.6 142.84 C-0.39 97.05, 0.98 49.31, 0.21 1.67 M0.68 145.17 C1.14 93.47, 1.67 40.87, 0.3 0.13" stroke="#862e9c" stroke-width="1" fill="none"></path></g><g transform="translate(185.76461969372326 13.37707226853172) rotate(0 22 13)"><text x="22" y="19" font-family="Virgil, Segoe UI Emoji" font-size="20px" fill="#862e9c" text-anchor="middle" style="white-space: pre;" direction="ltr">TEE</text></g><g stroke-linecap="round" transform="translate(355.74702410439045 271.19202256930976) rotate(0 68.5 49.54325402715904)"><path d="M0.8 1.85 C41.77 0.95, 80.74 -0.68, 136.63 0.07 M0.76 0.66 C52.57 0.2, 106.24 1.69, 136.38 -0.55 M138 0.46 C136.72 19.65, 139.32 40.92, 137.35 97.18 M137.76 -0.3 C135.41 24.58, 136.59 49.24, 136.55 100.08 M137.12 99.43 C103.98 100.54, 68.94 98.35, -1.1 98.55 M137.31 98.9 C97.2 100.62, 58.29 99.6, 0.74 98.77 M1.3 99.15 C-1.98 70.49, -0.86 45.55, 0.85 -0.1 M0.56 98.57 C0.88 77.6, 1.31 54.98, -0.6 -0.84" stroke="#364fc7" stroke-width="1" fill="none"></path></g><g transform="translate(400.4705214532662 307.73527659646834) rotate(0 23.5 13)"><text x="23.5" y="19" font-family="Virgil, Segoe UI Emoji" font-size="20px" fill="#364fc7" text-anchor="middle" style="white-space: pre;" direction="ltr">Node</text></g><g stroke-linecap="round" transform="translate(335.444325260067 252.54753054612002) rotate(0 89.24542698097184 68.20101600909766)"><path d="M1.51 0.59 C49.04 -2.7, 97.26 -1.59, 180.23 -0.89 M-0.43 -0.74 C41.55 -0.42, 82.03 -1.72, 177.65 0.74 M177.48 -1.76 C180.76 29.55, 179.53 60.99, 177.55 134.8 M177.7 -0.49 C179.91 29.94, 179.08 62.68, 178 135.7 M179.87 138.31 C131.52 136.43, 81.98 136.17, -0.26 137.42 M178.01 137.18 C114.98 135.83, 52.36 135.76, -0.22 136.93 M-1.46 135.36 C-1.23 104.17, -0.04 68.69, -1.62 -1.81 M-0.02 136.59 C-0.35 84.91, -1.36 34.06, -0.91 -0.12" stroke="#862e9c" stroke-width="1" fill="none"></path></g><g transform="translate(331.68413072238786 227.66748250211413) rotate(0 22 13)"><text x="22" y="19" font-family="Virgil, Segoe UI Emoji" font-size="20px" fill="#862e9c" text-anchor="middle" style="white-space: pre;" direction="ltr">TEE</text></g><g stroke-linecap="round"><g transform="translate(495.21064191107166 318.6158303274383) rotate(0 31.514867145517655 -83.1405369139436)"><path d="M-0.53 -1.17 C8.62 -12.42, 43.57 -39.82, 54.25 -67.15 C64.93 -94.47, 62.05 -148.69, 63.56 -165.11" stroke="#364fc7" stroke-width="1.5" fill="none" stroke-dasharray="8 9"></path></g><g transform="translate(495.21064191107166 318.6158303274383) rotate(0 31.514867145517655 -83.1405369139436)"><path d="M1.27 -0.54 L4.85 -14.26 L15.3 -7.04 L0.1 -0.4" stroke="none" stroke-width="0" fill="#364fc7" fill-rule="evenodd"></path><path d="M-2 -0.47 C1.78 -5.36, 1.62 -9.07, 3.43 -16.81 M4.77 -15.89 C6.96 -13.97, 8.57 -9.64, 12.6 -7.2 M13.54 -6.17 C8.65 -6.11, 6.56 -2.29, -0.38 0.03 M-0.53 -1.17 C-0.53 -1.17, -0.53 -1.17, -0.53 -1.17" stroke="#364fc7" stroke-width="1.5" fill="none"></path></g><g transform="translate(495.21064191107166 318.6158303274383) rotate(0 31.514867145517655 -83.1405369139436)"><path d="M65.36 -164.47 L70.08 -150.22 L58.69 -152.12 L64.19 -164.33" stroke="none" stroke-width="0" fill="#364fc7" fill-rule="evenodd"></path><path d="M62.09 -164.41 C66.23 -162.49, 66.35 -159.42, 68.66 -152.77 M70 -151.85 C66.57 -152.47, 62.58 -150.48, 55.99 -152.28 M56.93 -151.25 C58 -156.81, 62.01 -158.54, 63.71 -163.9 M63.56 -165.11 C63.56 -165.11, 63.56 -165.11, 63.56 -165.11" stroke="#364fc7" stroke-width="1.5" fill="none"></path></g></g><mask></mask><g stroke-linecap="round"><g transform="translate(487.3537333858005 102.85328568670002) rotate(0 -70.71031388322126 -0.37370670153859464)"><path d="M-0.7 0.49 C-24.23 0.21, -117.54 -0.9, -140.72 -1.23" stroke="#364fc7" stroke-width="1.5" fill="none" stroke-dasharray="8 9"></path></g><g transform="translate(487.3537333858005 102.85328568670002) rotate(0 -70.71031388322126 -0.37370670153859464)"><path d="M-0.29 1.66 L-15.97 8.49 L-15.06 -5.91 L0.24 -0.62" stroke="none" stroke-width="0" fill="#364fc7" fill-rule="evenodd"></path><path d="M-0.1 -1 C-6.1 2.19, -11.11 3.54, -14.25 5.66 M-15.36 5.99 C-13.28 2.49, -13.76 -3.18, -15.01 -6.91 M-14.83 -6.21 C-8.64 -4.81, -5.44 -1.01, 0.65 1.16 M-0.7 0.49 C-0.7 0.49, -0.7 0.49, -0.7 0.49" stroke="#364fc7" stroke-width="1.5" fill="none"></path></g><g transform="translate(487.3537333858005 102.85328568670002) rotate(0 -70.71031388322126 -0.37370670153859464)"><path d="M-140.31 -0.06 L-128.64 -5.56 L-128.05 5.39 L-139.78 -2.34" stroke="none" stroke-width="0" fill="#364fc7" fill-rule="evenodd"></path><path d="M-140.11 -2.72 C-136.89 -3.55, -132.64 -6.38, -126.91 -8.4 M-128.03 -8.07 C-125.94 -2.99, -126.53 -0.07, -128 4.39 M-127.81 5.09 C-131.84 1.54, -138.92 0.39, -139.36 -0.57 M-140.72 -1.23 C-140.72 -1.23, -140.72 -1.23, -140.72 -1.23" stroke="#364fc7" stroke-width="1.5" fill="none"></path></g></g><mask></mask><g stroke-linecap="round"><g transform="translate(276.57650261745744 158.29760514425743) rotate(0 37.80419210365744 82.57706584431867)"><path d="M-1.17 1.08 C-0.46 16.24, -9.96 64.82, 3.47 91.98 C16.89 119.15, 67 152.06, 79.38 164.08" stroke="#364fc7" stroke-width="1.5" fill="none" stroke-dasharray="8 9"></path></g><g transform="translate(276.57650261745744 158.29760514425743) rotate(0 37.80419210365744 82.57706584431867)"><path d="M-2.44 2.31 L4.91 14.67 L-8.38 16.05 L0.05 1.56" stroke="none" stroke-width="0" fill="#364fc7" fill-rule="evenodd"></path><path d="M0.17 0.56 C0.01 5.44, 1.48 6.64, 4.51 16.12 M5.92 14.93 C2.08 14.73, -2.16 14.23, -7.53 14.25 M-7.72 14.85 C-5.59 10, -2.23 5.13, 0.04 1.59 M-1.17 1.08 C-1.17 1.08, -1.17 1.08, -1.17 1.08" stroke="#364fc7" stroke-width="1.5" fill="none"></path></g><g transform="translate(276.57650261745744 158.29760514425743) rotate(0 37.80419210365744 82.57706584431867)"><path d="M78.12 165.31 L65.06 160.2 L72.45 152.19 L80.61 164.56" stroke="none" stroke-width="0" fill="#364fc7" fill-rule="evenodd"></path><path d="M80.73 163.56 C75.65 164.16, 72.34 161.27, 64.65 161.65 M66.07 160.46 C66.86 158.36, 67.24 155.77, 73.3 150.39 M73.11 150.98 C74.96 155.06, 78.22 159.12, 80.6 164.59 M79.38 164.08 C79.38 164.08, 79.38 164.08, 79.38 164.08" stroke="#364fc7" stroke-width="1.5" fill="none"></path></g></g><mask></mask><g stroke-linecap="round" transform="translate(10 284.76711832580895) rotate(0 68.5 49.54325402715904)"><path d="M-1.99 -0.73 C47.1 -0.64, 93.08 1.82, 136.4 -0.78 M-0.4 -0.12 C47.52 0.31, 96.42 -0.63, 136.53 -0.83 M137.1 -0.34 C139.54 33.75, 138.04 62.81, 137.71 98.37 M137.91 -0.09 C137.04 20.15, 136.65 41.88, 136.74 99.82 M136.26 98.48 C105.58 100.07, 72.27 99.42, 1.18 99.67 M136.65 99.37 C88.6 100.16, 39.68 99.27, -0.25 99.4 M-1.68 99.42 C1.74 68.71, -2.26 36.24, 0.09 0.14 M-0.38 98.39 C-0.63 69.19, -0.03 38.25, -0.33 0.38" stroke="#e67700" stroke-width="1" fill="none"></path></g><g transform="translate(50.72349734887575 308.310372352968) rotate(0 27.5 26)"><text x="27.5" y="19" font-family="Virgil, Segoe UI Emoji" font-size="20px" fill="#e67700" text-anchor="middle" style="white-space: pre;" direction="ltr">User</text><text x="27.5" y="45" font-family="Virgil, Segoe UI Emoji" font-size="20px" fill="#e67700" text-anchor="middle" style="white-space: pre;" direction="ltr">Client</text></g><g stroke-linecap="round" transform="translate(204.44654269402372 471.7962481433192) rotate(0 68.49999999999989 49.54325402715904)"><path d="M0.19 0.85 C42.75 -0.13, 88.5 0.56, 135.03 0.92 M-0.49 -0.79 C47.65 -0.6, 96.45 -0.28, 136.55 0.7 M136.6 -0.21 C135.59 19.61, 137.62 40.72, 137.49 99.38 M136.89 0.06 C138.04 30.83, 137.88 63.16, 137.45 98.83 M135.92 99.89 C104.51 100.59, 69.55 101.62, 1.72 100.71 M137.08 98.35 C108.85 98.23, 79.51 98.05, 0.8 100.07 M1.83 97.19 C0.96 71.72, 2.15 44.87, -1.76 -0.83 M-0.19 98.65 C1.48 65.02, 1.62 30.89, 0.16 0.61" stroke="#e67700" stroke-width="1" fill="none"></path></g><g transform="translate(245.17004004289947 495.3395021704782) rotate(0 27.499999999999886 26)"><text x="27.5" y="19" font-family="Virgil, Segoe UI Emoji" font-size="20px" fill="#e67700" text-anchor="middle" style="white-space: pre;" direction="ltr">User</text><text x="27.5" y="45" font-family="Virgil, Segoe UI Emoji" font-size="20px" fill="#e67700" text-anchor="middle" style="white-space: pre;" direction="ltr">Client</text></g><g stroke-linecap="round" transform="translate(534.4378403182402 455.5861493126549) rotate(0 68.5 49.54325402715904)"><path d="M-1.14 -1.86 C53.44 0.16, 105.51 0.93, 138.56 -1.92 M-0.38 0.13 C29.76 -1, 61.02 0.46, 136.6 -0.07 M137.4 -0.83 C135.44 31.79, 137.47 61.61, 135.79 97.64 M136.03 0.36 C136.06 34.38, 137.12 67.41, 137.74 98.28 M137.57 98.24 C107.21 100.28, 73.09 100.41, 0.12 99.81 M137.81 99.43 C105.02 98.65, 73.09 99.37, 0.3 99.16 M1.96 97.53 C0.44 72.76, 0.85 49.69, -0.9 1.61 M-0.74 99.87 C-0.49 68.7, 0.53 37.94, -0.37 0.7" stroke="#e67700" stroke-width="1" fill="none"></path></g><g transform="translate(575.161337667116 479.12940333981396) rotate(0 27.5 26)"><text x="27.5" y="19" font-family="Virgil, Segoe UI Emoji" font-size="20px" fill="#e67700" text-anchor="middle" style="white-space: pre;" direction="ltr">User</text><text x="27.5" y="45" font-family="Virgil, Segoe UI Emoji" font-size="20px" fill="#e67700" text-anchor="middle" style="white-space: pre;" direction="ltr">Client</text></g><g stroke-linecap="round" transform="translate(675.697272985449 254.1177781315546) rotate(0 68.5 49.54325402715904)"><path d="M0.7 -0.29 C41.76 -1.57, 85.92 -0.51, 137.16 -1 M-0.78 0.13 C37.9 -1.01, 77.42 -1.79, 137.8 0.04 M138.57 -0.5 C137.19 33.68, 135.9 63.55, 138.39 99.04 M137.95 -0.8 C137.29 30.77, 138.1 63.05, 136.15 98.93 M137.96 99.36 C99.45 99.25, 59.65 98.5, 1.93 100.29 M137 99.73 C106.83 100.63, 77.47 100.97, -0.48 99.38 M-1.44 97.24 C0.05 66.73, -0.36 37.79, 1.15 -1.23 M-0.08 99.56 C0.05 70.08, 1.37 41.4, 0.15 -0.82" stroke="#e67700" stroke-width="1" fill="none"></path></g><g transform="translate(716.4207703343247 277.6610321587136) rotate(0 27.5 26)"><text x="27.5" y="19" font-family="Virgil, Segoe UI Emoji" font-size="20px" fill="#e67700" text-anchor="middle" style="white-space: pre;" direction="ltr">User</text><text x="27.5" y="45" font-family="Virgil, Segoe UI Emoji" font-size="20px" fill="#e67700" text-anchor="middle" style="white-space: pre;" direction="ltr">Client</text></g><g stroke-linecap="round"><g transform="translate(281.05159210935494 470.3934772741077) rotate(0 52.08424540601868 -50.13346780331244)"><path d="M0.13 0.18 C17.36 -16.67, 85.83 -83.67, 103.23 -100.45 M-1.26 -0.77 C16.35 -17.55, 87.89 -82.89, 105.43 -99.37" stroke="#e67700" stroke-width="1" fill="none"></path></g><g transform="translate(281.05159210935494 470.3934772741077) rotate(0 52.08424540601868 -50.13346780331244)"><path d="M104.07 -100.74 L101.65 -86.74 L92.76 -94.3 L103.82 -97.99" stroke="none" stroke-width="0" fill="#e67700" fill-rule="evenodd"></path><path d="M105.65 -100.59 C102.78 -94.92, 101.08 -91.19, 99.01 -85.13 M105.42 -100.11 C103.32 -94.56, 100.63 -89.57, 99.87 -85.25 M100.9 -86.13 C98.48 -86.43, 97.33 -89.63, 90.86 -95.91 M100 -85.25 C97.11 -88.02, 95.24 -90.06, 90.91 -95.16 M90.89 -95.79 C95.57 -97.73, 100.91 -99.1, 104.24 -100.14 M91.61 -95.51 C96 -96.76, 100.98 -98.41, 104.84 -99 M105.43 -99.37 C105.43 -99.37, 105.43 -99.37, 105.43 -99.37 M105.43 -99.37 C105.43 -99.37, 105.43 -99.37, 105.43 -99.37" stroke="#e67700" stroke-width="1" fill="none"></path></g></g><mask></mask><g stroke-linecap="round"><g transform="translate(598.3063835094792 451.86765003906385) rotate(0 -64.55254072817661 -40.21305640296964)"><path d="M-0.88 0.46 C-22.33 -12.84, -107.75 -67.44, -129.25 -80.89 M0.86 -0.34 C-20.66 -13.43, -108.04 -66.74, -129.97 -79.87" stroke="#e67700" stroke-width="1" fill="none"></path></g><g transform="translate(598.3063835094792 451.86765003906385) rotate(0 -64.55254072817661 -40.21305640296964)"><path d="M-128.09 -79.69 L-115.46 -76.76 L-123.08 -66.45 L-130.37 -78.81" stroke="none" stroke-width="0" fill="#e67700" fill-rule="evenodd"></path><path d="M-129.39 -79.33 C-127.41 -79.58, -122.8 -78.34, -115.61 -79.13 M-130.09 -80.37 C-125.11 -80.06, -119.75 -79.4, -115.65 -78.64 M-114.27 -79.48 C-117.17 -75.03, -119.22 -71.49, -122.62 -66.79 M-114.64 -77.63 C-116.59 -76.02, -117.89 -72.39, -121.25 -68.04 M-122.78 -66.04 C-123.86 -71.34, -128.07 -74.09, -129.04 -80.6 M-122.09 -66.8 C-123.29 -70.83, -124.9 -73.26, -130.18 -80.52 M-129.97 -79.87 C-129.97 -79.87, -129.97 -79.87, -129.97 -79.87 M-129.97 -79.87 C-129.97 -79.87, -129.97 -79.87, -129.97 -79.87" stroke="#e67700" stroke-width="1" fill="none"></path></g></g><mask></mask><g stroke-linecap="round"><g transform="translate(674.7254208540346 305.97676056309456) rotate(0 -89.90084359848447 15.906982197777324)"><path d="M-0.49 0.22 C-30.5 5.46, -151.33 26.2, -181.26 31.48 M1.46 -0.71 C-28.06 4.65, -148.55 26.91, -178.88 32.52" stroke="#e67700" stroke-width="1" fill="none"></path></g><g transform="translate(674.7254208540346 305.97676056309456) rotate(0 -89.90084359848447 15.906982197777324)"><path d="M-177.7 30.76 L-166.99 23.05 L-164.31 36 L-178.83 31.88" stroke="none" stroke-width="0" fill="#e67700" fill-rule="evenodd"></path><path d="M-178.6 31.73 C-177.57 31.53, -174.55 29.53, -166.05 24.81 M-178.28 32.83 C-173.59 28.42, -169.15 26.17, -165.92 23.24 M-167.79 24.47 C-164.94 28.09, -165.69 32.71, -163.16 35.48 M-166.23 23.7 C-165.94 28.04, -165.06 33.89, -164 35.87 M-164.07 37.3 C-168.32 34.87, -173.75 34.68, -179.74 32.04 M-163.91 36.38 C-169.06 34.33, -172.98 33.81, -179.03 33.08 M-178.88 32.52 C-178.88 32.52, -178.88 32.52, -178.88 32.52 M-178.88 32.52 C-178.88 32.52, -178.88 32.52, -178.88 32.52" stroke="#e67700" stroke-width="1" fill="none"></path></g></g><mask></mask><g stroke-linecap="round"><g transform="translate(693.2512480890784 250.3992788579635) rotate(0 -46.16050621845011 -48.30981030144744)"><path d="M0.99 1.03 C-14.74 -15.26, -77.76 -81.12, -93.32 -97.65 M0.06 0.52 C-15.38 -15.6, -75.45 -80.01, -90.96 -96.31" stroke="#e67700" stroke-width="1" fill="none"></path></g><g transform="translate(693.2512480890784 250.3992788579635) rotate(0 -46.16050621845011 -48.30981030144744)"><path d="M-92.44 -97.19 L-77.02 -89.74 L-84.47 -83.94 L-91.32 -96" stroke="none" stroke-width="0" fill="#e67700" fill-rule="evenodd"></path><path d="M-89.68 -97.17 C-86 -93.93, -81.17 -93.33, -76.13 -90.57 M-90.89 -96.46 C-86.36 -95.36, -82.48 -93.34, -76.63 -91.05 M-76.49 -90.89 C-79.78 -89.1, -81.98 -85.82, -86.2 -82.33 M-77.3 -90.57 C-79.1 -88.09, -82.59 -86.25, -86.51 -82.05 M-85.2 -82.84 C-89.04 -86.67, -90.18 -88.74, -90.14 -96.21 M-86.08 -82.49 C-87.96 -87.02, -90.47 -93.96, -91.5 -96.91 M-90.96 -96.31 C-90.96 -96.31, -90.96 -96.31, -90.96 -96.31 M-90.96 -96.31 C-90.96 -96.31, -90.96 -96.31, -90.96 -96.31" stroke="#e67700" stroke-width="1" fill="none"></path></g></g><mask></mask><g stroke-linecap="round"><g transform="translate(147.89720885747852 333.7655014156603) rotate(0 103.31278890535441 2.1511056583635764)"><path d="M-0.4 -1.07 C34.09 -0.35, 172.36 3.01, 207.03 4.11 M1.59 0.98 C35.9 1.89, 171.72 4.93, 205.96 5.37" stroke="#e67700" stroke-width="1" fill="none"></path></g><g transform="translate(147.89720885747852 333.7655014156603) rotate(0 103.31278890535441 2.1511056583635764)"><path d="M205.86 4.94 L191.41 13.12 L190.86 -2.12 L207.3 5.12" stroke="none" stroke-width="0" fill="#e67700" fill-rule="evenodd"></path><path d="M204.62 5.09 C201.12 7.63, 198.69 9.92, 190.93 11.22 M205.98 5.14 C202.91 6.56, 198.08 8.28, 191.64 12.21 M191.85 12.27 C192.62 6.26, 192.6 3.54, 191.56 -2.38 M192.39 11 C191.87 8.2, 192.56 6.05, 192.87 -0.76 M191.48 -0.51 C197.65 0.67, 201.5 1.66, 207.2 6.74 M192.15 -1.21 C197.8 1.98, 201.68 3.6, 206.08 4.63 M205.96 5.37 C205.96 5.37, 205.96 5.37, 205.96 5.37 M205.96 5.37 C205.96 5.37, 205.96 5.37, 205.96 5.37" stroke="#e67700" stroke-width="1" fill="none"></path></g></g><mask></mask><g stroke-linecap="round"><g transform="translate(114.3191469939618 282.81947651928976) rotate(0 54.4100561106485 -61.774355048764846)"><path d="M-0.71 0.19 C17.69 -19.97, 91.13 -101.55, 109.54 -122 M1.11 -0.75 C19.49 -21.17, 90.91 -103.68, 108.95 -123.74" stroke="#e67700" stroke-width="1" fill="none"></path></g><g transform="translate(114.3191469939618 282.81947651928976) rotate(0 54.4100561106485 -61.774355048764846)"><path d="M108.39 -123.67 L102.83 -109.5 L94.5 -119.34 L108.04 -123.81" stroke="none" stroke-width="0" fill="#e67700" fill-rule="evenodd"></path><path d="M109.19 -122.87 C108.79 -119.43, 107.18 -118.74, 106.13 -110.35 M109.22 -124.33 C108.2 -118.07, 106.63 -114.11, 104.17 -109.68 M103.54 -109.58 C102.02 -113.05, 97.77 -113.78, 95.8 -117.54 M104.21 -109.8 C100.7 -111.87, 98.02 -115.35, 95.64 -118.07 M95.62 -118.23 C97.69 -118.12, 102.9 -121.49, 108.32 -122.5 M95.12 -117.99 C98.69 -119.44, 101.77 -119.76, 108.83 -124.44 M108.95 -123.74 C108.95 -123.74, 108.95 -123.74, 108.95 -123.74 M108.95 -123.74 C108.95 -123.74, 108.95 -123.74, 108.95 -123.74" stroke="#e67700" stroke-width="1" fill="none"></path></g></g><mask></mask></svg>