<svg version="1.1" xmlns="http://www.w3.org/2000/svg" viewBox="0 0 471.9553171567168 467.3158679063937" width="471.9553171567168" height="467.3158679063937">
  <!-- svg-source:excalidraw -->
  
  <defs>
    <style class="style-fonts">
      @font-face {
        font-family: "Virgil";
        src: url("https://excalidraw.com/Virgil.woff2");
      }
      @font-face {
        font-family: "Cascadia";
        src: url("https://excalidraw.com/Cascadia.woff2");
      }
    </style>
  </defs>
  <g stroke-linecap="round" transform="translate(155.97652380922045 88.28689254541257) rotate(0 78.5 50)"><path d="M1.57 -0.51 C42.92 0.2, 87.36 -1.14, 157.45 -1.58 M0.05 0.09 C51.05 -0.48, 101.31 0.67, 156.27 0.53 M157.97 0.9 C157.33 39.11, 158.58 76.89, 157.94 98.32 M157.09 0.37 C155.85 34.7, 156.86 67.58, 156.81 99.9 M158.87 101.58 C107.95 102.55, 61.47 101.64, -1.48 99.85 M157.05 99.34 C112.11 99.52, 69.41 100.06, 0.06 100.89 M-1.63 100.6 C0.69 69.95, -1.3 36.85, -0.32 0.22 M0.23 100.62 C-0.73 74.06, -1.62 47.66, 0.28 0.62" stroke="#364fc7" stroke-width="1" fill="none"></path></g><g transform="translate(190.97652380922045 112.28689254541257) rotate(0 43.5 26)"><text x="43.5" y="19" font-family="Virgil, Segoe UI Emoji" font-size="20px" fill="#364fc7" text-anchor="middle" style="white-space: pre;" direction="ltr">Service</text><text x="43.5" y="45" font-family="Virgil, Segoe UI Emoji" font-size="20px" fill="#364fc7" text-anchor="middle" style="white-space: pre;" direction="ltr">Instance</text></g><g stroke-linecap="round" transform="translate(119.86042922468732 10) rotate(0 114.18612779558862 111.88898730567286)"><path d="M-0.43 1.25 C87.31 0.6, 174.14 -0.85, 228.81 1.52 M-0.08 -0.28 C69.89 0.52, 140.82 0.27, 229.14 0.23 M228.43 0.05 C230.44 79.52, 230.12 159.66, 229.07 222.87 M227.84 0.54 C228.87 60.05, 228.38 120.99, 228.46 223.59 M228.06 225.36 C151.39 226.13, 70 225.19, -0.31 224.92 M227.84 223.3 C159.39 222.47, 88.87 223.25, 0.13 223.74 M0.55 225.04 C0.42 140.96, 1.3 58.52, -0.65 1.1 M-0.08 224.03 C-1.3 155.38, -0.21 87.3, -0.14 0.21" stroke="#5c940d" stroke-width="1" fill="none"></path></g><g transform="translate(191.31344528264663 22.91915137908532) rotate(0 44.5 13)"><text x="44.5" y="19" font-family="Virgil, Segoe UI Emoji" font-size="20px" fill="#5c940d" text-anchor="middle" style="white-space: pre;" direction="ltr">Operator</text></g><g stroke-linecap="round" transform="translate(138.60964584906696 72.11088716439303) rotate(0 95.9362718017353 69.67287938557956)"><path d="M1.99 -1.21 C54.75 0.25, 110.3 0.49, 191.79 0.1 M0.22 0.16 C43.73 -2.31, 85.52 -2.43, 191.55 0.51 M193.09 -1.38 C189.95 51.31, 191.1 104.84, 193.04 140.06 M191.36 -0.56 C192.99 55.56, 193.14 109.78, 191.63 140.3 M193.07 139.74 C148.6 141.42, 105.71 139.23, -1.95 139.32 M191.75 139.28 C116.92 138.08, 41.47 138.97, 0.42 139.43 M0.06 141.02 C1.01 92.94, -0.41 47.31, -1.32 1.38 M-0.99 138.41 C0.03 96.58, 0.45 52.52, -0.17 0" stroke="#862e9c" stroke-width="1" fill="none"></path></g><g transform="translate(144.1953449635057 48.219173034341225) rotate(0 22 13)"><text x="22" y="19" font-family="Virgil, Segoe UI Emoji" font-size="20px" fill="#862e9c" text-anchor="middle" style="white-space: pre;" direction="ltr">TEE</text></g><g stroke-linecap="round" transform="translate(10 312.480701770635) rotate(0 68.22349734887484 49.54325402715904)"><path d="M1.58 -0.75 C32.54 -0.33, 62.28 0.71, 136.89 1.27 M-0.49 -0.21 C34.38 1.33, 68.11 1.29, 136.17 -0.44 M138.39 -0.91 C137.22 24.73, 137.58 47.46, 136.52 100.96 M136.44 0.42 C136.98 21.29, 137.35 44.77, 137.04 99.11 M135.6 98.1 C85.39 100.58, 32.02 101.43, 0.64 99.46 M136.22 98.84 C82.47 98.95, 27.85 97.78, -0.77 99.79 M1.08 98.55 C0.1 65.63, 1.05 27.95, -1.02 -0.76 M-0.41 99.11 C-0.1 77.18, 0.56 55.98, 0 0.01" stroke="#e67700" stroke-width="1" fill="none"></path></g><g transform="translate(55.223497348874844 349.0239557977936) rotate(0 23 13)"><text x="23" y="19" font-family="Virgil, Segoe UI Emoji" font-size="20px" fill="#e67700" text-anchor="middle" style="white-space: pre;" direction="ltr">User</text></g><g stroke-linecap="round" transform="translate(325.5083224589671 311.6486044310461) rotate(0 68.22349734887484 49.54325402715904)"><path d="M0.96 0.13 C44.65 1.68, 91.51 1.78, 135.48 -0.7 M0.03 0.52 C32.24 0.77, 65.37 -0.15, 135.79 -0.3 M137.51 1.55 C138.84 35.4, 137.48 70.47, 134.9 99.37 M136.83 -0.75 C137.2 33.03, 137.03 64.7, 137.27 99.03 M137.51 100.11 C90.55 100.28, 45.68 98.79, 1.95 101.04 M136.72 99.43 C100.18 97.92, 63.35 99.46, 0.49 98.25 M-0.72 100.26 C-0.31 77.16, -1.56 58.23, -1.62 0.37 M0.08 98.9 C1.15 73.74, 0.4 47.72, -0.93 0.34" stroke="#e67700" stroke-width="1" fill="none"></path></g><g transform="translate(370.73181980784193 348.1918584582056) rotate(0 23 13)"><text x="23" y="19" font-family="Virgil, Segoe UI Emoji" font-size="20px" fill="#e67700" text-anchor="middle" style="white-space: pre;" direction="ltr">User</text></g><g stroke-linecap="round"><g transform="translate(88.41711303233842 311.480701770635) rotate(0 52.92324415902931 -60.552796967978765)"><path d="M-1.16 0.93 C16.34 -19.3, 87.14 -101.59, 104.75 -122.03 M0.43 0.37 C18.32 -19.59, 89.27 -99.72, 107.01 -120.41" stroke="#000000" stroke-width="1" fill="none"></path></g><g transform="translate(88.41711303233842 311.480701770635) rotate(0 52.92324415902931 -60.552796967978765)"><path d="M105.62 -120.14 L101.62 -107.85 L94.07 -112.89 L106.81 -122.24" stroke="none" stroke-width="0" fill="#000000" fill-rule="evenodd"></path><path d="M108.16 -121.49 C105.96 -117.76, 105.2 -112.8, 102.33 -106.8 M106.61 -121.15 C105.85 -115.43, 103.98 -110.69, 102.46 -106.43 M103.93 -106.93 C98.8 -110.16, 94.48 -113.67, 94.54 -113.68 M103.36 -106.51 C100.14 -108.41, 97.19 -110.72, 93.53 -114.15 M92.12 -114.7 C97.96 -115.69, 102.63 -118.6, 108.11 -120.67 M93.87 -114.71 C97.14 -115.45, 100.45 -117.28, 106.68 -120.68 M107.01 -120.41 C107.01 -120.41, 107.01 -120.41, 107.01 -120.41 M107.01 -120.41 C107.01 -120.41, 107.01 -120.41, 107.01 -120.41" stroke="#000000" stroke-width="1" fill="none"></path></g></g><mask></mask><g stroke-linecap="round"><g transform="translate(385.7195019701385 309.23826424232993) rotate(0 -60.26907000317965 -60.282285067229566)"><path d="M0.51 0.24 C-19.49 -19.82, -100.4 -100.82, -120.53 -120.8 M-0.68 -0.68 C-20.72 -20.58, -101.09 -100.13, -121.05 -119.71" stroke="#000000" stroke-width="1" fill="none"></path></g><g transform="translate(385.7195019701385 309.23826424232993) rotate(0 -60.26907000317965 -60.282285067229566)"><path d="M-121.66 -121.02 L-108.05 -114.03 L-116.14 -107.41 L-119.98 -119.3" stroke="none" stroke-width="0" fill="#000000" fill-rule="evenodd"></path><path d="M-120.75 -118.7 C-118.5 -117.12, -113.44 -118.14, -106 -114 M-120.58 -120.08 C-118.4 -118.33, -114.73 -116.95, -106.78 -114.57 M-106.75 -115.45 C-111.05 -111.2, -111.96 -108.78, -116.98 -104.61 M-106.46 -114.34 C-110.77 -111.87, -113.6 -107.34, -116.09 -105.03 M-115.85 -106.8 C-115.59 -110.33, -119.06 -111.14, -121.4 -119.09 M-115.08 -105.17 C-118.02 -111.62, -120.14 -116.06, -120.93 -120.18 M-121.05 -119.71 C-121.05 -119.71, -121.05 -119.71, -121.05 -119.71 M-121.05 -119.71 C-121.05 -119.71, -121.05 -119.71, -121.05 -119.71" stroke="#000000" stroke-width="1" fill="none"></path></g></g><mask></mask><g stroke-linecap="round"><g transform="translate(93.00747560722266 415.75196145724516) rotate(0 136.5219974516349 19.425238421244558)"><path d="M1.17 -0.74 C24.98 6.27, 98.85 41.89, 143.97 41.56 C189.09 41.23, 250.35 4.69, 271.87 -2.71" stroke="#000000" stroke-width="1.5" fill="none" stroke-dasharray="8 9"></path></g><g transform="translate(93.00747560722266 415.75196145724516) rotate(0 136.5219974516349 19.425238421244558)"><path d="M0.63 -1.1 L14.65 -2.73 L10.51 8.68 L1.81 -1.07" stroke="none" stroke-width="0" fill="#000000" fill-rule="evenodd"></path><path d="M0.24 -0.55 C7.83 -1.46, 11.68 -0.47, 14.75 -2.86 M17.3 -3.38 C13.42 3.66, 13.65 6.46, 11.17 9.24 M12 8.64 C8.86 4.18, 4.81 2.51, 0.77 -1.88 M1.17 -0.74 C1.17 -0.74, 1.17 -0.74, 1.17 -0.74" stroke="#000000" stroke-width="1.5" fill="none"></path></g><g transform="translate(93.00747560722266 415.75196145724516) rotate(0 136.5219974516349 19.425238421244558)"><path d="M271.34 -3.06 L260.59 8.01 L255.56 -4.09 L272.52 -3.04" stroke="none" stroke-width="0" fill="#000000" fill-rule="evenodd"></path><path d="M270.94 -2.52 C268.82 1.77, 263 7.72, 260.69 7.88 M263.24 7.36 C259.08 5.5, 258.97 -0.6, 256.22 -3.53 M257.05 -4.13 C264.07 -4.16, 270.17 -1.56, 271.48 -3.85 M271.87 -2.71 C271.87 -2.71, 271.87 -2.71, 271.87 -2.71" stroke="#000000" stroke-width="1.5" fill="none"></path></g></g><mask></mask></svg>